<?xml version="1.0"?>
<svg xmlns="http://www.w3.org/2000/svg" xmlns:xlink="http://www.w3.org/1999/xlink" version="1.1"
	xml:space="preserve">
	<defs>
		<symbol id="email" width="100%" height="100%" viewBox="0 0 22 18">
			<path fill-rule="evenodd" clip-rule="evenodd" d="M1.37868 1.71193C0.5 2.59061 0.5 4.00482 0.5 6.83325V11.1666C0.5 13.995 0.5 15.4092 1.37868 16.2879C2.25736 17.1666 3.67157 17.1666 6.5 17.1666H15.5C18.3284 17.1666 19.7426 17.1666 20.6213 16.2879C21.5 15.4092 21.5 13.995 21.5 11.1666V6.83325C21.5 4.00483 21.5 2.59061 20.6213 1.71193C19.7426 0.833252 18.3284 0.833252 15.5 0.833252H6.5C3.67157 0.833252 2.25736 0.833252 1.37868 1.71193ZM4.5547 4.66787C4.09517 4.36152 3.4743 4.48569 3.16795 4.94522C2.8616 5.40475 2.98577 6.02562 3.4453 6.33197L9.8906 10.6288C10.5624 11.0767 11.4376 11.0767 12.1094 10.6288L18.5547 6.33197C19.0142 6.02562 19.1384 5.40475 18.8321 4.94522C18.5257 4.48569 17.9048 4.36152 17.4453 4.66787L11 8.96474L4.5547 4.66787Z" fill="currentColor" />
		</symbol>
		<symbol id="phone" width="100%" height="100%" viewBox="0 0 24 24">
			<path d="M5 4H9L11 9L8.5 10.5C9.57096 12.6715 11.3285 14.429 13.5 15.5L15 13L20 15V19C20 19.5304 19.7893 20.0391 19.4142 20.4142C19.0391 20.7893 18.5304 21 18 21C14.0993 20.763 10.4202 19.1065 7.65683 16.3432C4.8935 13.5798 3.23705 9.90074 3 6C3 5.46957 3.21071 4.96086 3.58579 4.58579C3.96086 4.21071 4.46957 4 5 4" stroke="currentColor" fill="none" stroke-width="2" stroke-linecap="round" stroke-linejoin="round"/>
			<path d="M15 7C15.5304 7 16.0391 7.21071 16.4142 7.58579C16.7893 7.96086 17 8.46957 17 9" stroke="currentColor" fill="none" stroke-width="2" stroke-linecap="round" stroke-linejoin="round"/>
			<path d="M15 3C16.5913 3 18.1174 3.63214 19.2426 4.75736C20.3679 5.88258 21 7.4087 21 9" stroke="currentColor" fill="none" stroke-width="2" stroke-linecap="round" stroke-linejoin="round"/>
		</symbol>
		<symbol id="vk" width="100%" height="100%" viewBox="0 0 18 12">
			<path d="M9.80382 12C3.65391 12 0.146159 7.49549 0 0H3.08057C3.18176 5.5015 5.45279 7.83183 7.25166 8.31231V0H10.1525V4.74474C11.9289 4.54054 13.795 2.37838 14.4246 0H17.3253C16.8419 2.93093 14.8181 5.09309 13.379 5.98198C14.8181 6.7027 17.123 8.58859 18 12H14.8069C14.1211 9.71772 12.4123 7.95195 10.1525 7.71171V12H9.80382Z" fill="currentColor"/>
		</symbol>
		<symbol id="telegramm" width="100%" height="100%" viewBox="0 0 13 12">
			<path fill-rule="evenodd" clip-rule="evenodd" d="M0.890093 5.1755C4.37904 3.48736 6.70168 2.36563 7.86798 1.82142C11.1875 0.277656 11.8852 0.0111062 12.3338 0C12.4335 0 12.6528 0.0222126 12.8023 0.155487C12.922 0.26655 12.9519 0.410931 12.9718 0.521993C12.9917 0.633055 13.0117 0.866286 12.9917 1.04399C12.8123 3.15417 12.0348 8.27414 11.636 10.6287C11.4666 11.6282 11.1376 11.9614 10.8186 11.9947C10.1208 12.0614 9.59251 11.4838 8.92463 10.9952C7.86798 10.2288 7.27984 9.75127 6.2531 8.99604C5.06686 8.12976 5.83442 7.65219 6.51228 6.87475C6.69171 6.67484 9.75201 3.5651 9.81182 3.28744C9.82179 3.25412 9.82179 3.12085 9.75201 3.05421C9.68223 2.98757 9.58255 3.00979 9.5028 3.032C9.39315 3.05421 7.71845 4.29811 4.45878 6.75259C3.9803 7.11909 3.55166 7.29679 3.16289 7.28569C2.73425 7.27458 1.91684 7.01913 1.2988 6.79701C0.551167 6.53046 -0.0469375 6.38608 0.00290451 5.91962C0.0328097 5.67528 0.331862 5.43094 0.890093 5.1755Z" fill="currentColor"/>
		</symbol>
		<symbol id="menu" width="100%" height="100%" viewBox="0 0 20 18">
			<path fill-rule="evenodd" clip-rule="evenodd" d="M0.199951 2.0001C0.199951 1.2269 0.826752 0.600098 1.59995 0.600098H18.4C19.1732 0.600098 19.8 1.2269 19.8 2.0001C19.8 2.7733 19.1732 3.4001 18.4 3.4001H1.59995C0.826752 3.4001 0.199951 2.7733 0.199951 2.0001Z" fill="currentColor" />
			<path fill-rule="evenodd" clip-rule="evenodd" d="M0.199951 9.0001C0.199951 8.2269 0.826752 7.6001 1.59995 7.6001H18.4C19.1732 7.6001 19.8 8.2269 19.8 9.0001C19.8 9.7733 19.1732 10.4001 18.4 10.4001H1.59995C0.826752 10.4001 0.199951 9.7733 0.199951 9.0001Z" fill="currentColor" />
			<path fill-rule="evenodd" clip-rule="evenodd" d="M0.199951 16.0001C0.199951 15.2269 0.826752 14.6001 1.59995 14.6001H18.4C19.1732 14.6001 19.8 15.2269 19.8 16.0001C19.8 16.7733 19.1732 17.4001 18.4 17.4001H1.59995C0.826752 17.4001 0.199951 16.7733 0.199951 16.0001Z" fill="currentColor" />
		</symbol>
		<symbol id="arrow-right" width="100%" height="100%" viewBox="0 0 15 10">
			<path d="M13 5L13.7071 4.29289L14.4142 5L13.7071 5.70711L13 5ZM1 6C0.447715 6 0 5.55228 0 5C0 4.44772 0.447715 4 1 4V6ZM9.70711 0.292893L13.7071 4.29289L12.2929 5.70711L8.29289 1.70711L9.70711 0.292893ZM13.7071 5.70711L9.70711 9.70711L8.29289 8.29289L12.2929 4.29289L13.7071 5.70711ZM13 6H1V4H13V6Z" fill="currentColor" />
		</symbol>
		<symbol id="arrow-left" width="100%" height="100%" viewBox="0 0 15 10">
			<path d="M2 5L1.29289 4.29289L0.585786 5L1.29289 5.70711L2 5ZM14 6C14.5523 6 15 5.55228 15 5C15 4.44772 14.5523 4 14 4V6ZM5.29289 0.292893L1.29289 4.29289L2.70711 5.70711L6.70711 1.70711L5.29289 0.292893ZM1.29289 5.70711L5.29289 9.70711L6.70711 8.29289L2.70711 4.29289L1.29289 5.70711ZM2 6H14V4H2V6Z" fill="currentColor" />
		</symbol>
		<symbol id="gal-ochka" width="100%" height="100%" viewBox="0 0 12 10">
			<path d="M6.23497 8.79946C5.9649 9.16602 5.54433 9.3913 5.0896 9.41369C4.63487 9.43632 4.19445 9.25304 3.88975 8.91464L1.15929 5.88456C0.725328 5.40328 0.763876 4.6614 1.24515 4.22744C1.72689 3.79348 2.46831 3.83226 2.90227 4.31377L4.83407 6.45771C4.8627 6.48956 4.90425 6.50664 4.94695 6.50456C4.98988 6.50249 5.02912 6.48102 5.05475 6.44686L9.02546 1.0614C9.40979 0.539728 10.1443 0.428699 10.6662 0.813259C11.1876 1.19782 11.2984 1.93232 10.9139 2.45376L6.23497 8.79946Z" fill="currentColor" />
		</symbol>
		<symbol id="to-right" width="100%" height="100%" viewBox="0 0 8 14">
			<path d="M5.63663 7.00019L1.15148 2.51504C0.7935 2.15706 0.7935 1.57666 1.15148 1.21868C1.50946 0.8607 2.08986 0.8607 2.44784 1.21868L7.58118 6.35201C7.93916 6.70999 7.93916 7.29039 7.58118 7.64838L2.44784 12.7817C2.08986 13.1397 1.50946 13.1397 1.15148 12.7817C0.7935 12.4237 0.7935 11.8433 1.15148 11.4853L5.63663 7.00019Z" fill="currentColor" />
		</symbol>
		<symbol id="to-left" width="100%" height="100%" viewBox="0 0 8 14">
			<path d="M2.36337 7.00019L6.84852 2.51504C7.2065 2.15706 7.2065 1.57666 6.84852 1.21868C6.49054 0.8607 5.91014 0.8607 5.55216 1.21868L0.418823 6.35201C0.0608425 6.70999 0.0608425 7.29039 0.418823 7.64838L5.55216 12.7817C5.91014 13.1397 6.49054 13.1397 6.84852 12.7817C7.2065 12.4237 7.2065 11.8433 6.84852 11.4853L2.36337 7.00019Z" fill="currentColor" />
		</symbol>
		<symbol id="play" width="100%" height="100%" viewBox="0 0 32 38">
			<path d="M5.27275 38C4.93519 38 4.61146 37.8332 4.37278 37.5363C4.13409 37.2393 4 36.8366 4 36.4167V1.58307C4.00004 1.30794 4.05771 1.03756 4.16732 0.79859C4.27694 0.559623 4.43472 0.360315 4.62511 0.220312C4.81551 0.0803081 5.03194 0.00444103 5.25308 0.000189119C5.47422 -0.00406279 5.69243 0.0634472 5.88621 0.196064L31.3411 17.6129C31.5407 17.7495 31.7071 17.9503 31.823 18.1943C31.9389 18.4383 32 18.7165 32 18.9999C32 19.2833 31.9389 19.5615 31.823 19.8054C31.7071 20.0494 31.5407 20.2502 31.3411 20.3869L5.88621 37.8037C5.69829 37.9324 5.48727 37.9999 5.27275 38Z" fill="currentColor" />
		</symbol>
		<symbol id="cross" width="100%" height="100%" viewBox="0 0 16 16">
			<path d="M1 15L15 1M1 1L15 15" fill="none" stroke="currentColor" stroke-width="2" stroke-linecap="round" stroke-linejoin="round" />
		</symbol>
		<symbol id="border-all" width="100%" height="100%" viewBox="0 0 18 18">
			<path d="M13.5 3H4.5C3.67157 3 3 3.67157 3 4.5V13.5C3 14.3284 3.67157 15 4.5 15H13.5C14.3284 15 15 14.3284 15 13.5V4.5C15 3.67157 14.3284 3 13.5 3Z" stroke="currentColor" fill="none" stroke-width="1.6" stroke-linecap="round" stroke-linejoin="round"/>
			<path d="M3 9H15" stroke="currentColor" fill="none" stroke-width="1.6" stroke-linecap="round" stroke-linejoin="round"/>
			<path d="M9 3V15" stroke="currentColor" fill="none" stroke-width="1.6" stroke-linecap="round" stroke-linejoin="round"/>
		</symbol>
		<symbol id="clock" width="100%" height="100%" viewBox="0 0 18 18">
			<path d="M9 15.75C12.7279 15.75 15.75 12.7279 15.75 9C15.75 5.27208 12.7279 2.25 9 2.25C5.27208 2.25 2.25 5.27208 2.25 9C2.25 12.7279 5.27208 15.75 9 15.75Z" stroke="currentColor" fill="none" stroke-width="1.6" stroke-linecap="round" stroke-linejoin="round"/>
			<path d="M9 5.25V9L11.25 11.25" stroke="currentColor" fill="none" stroke-width="1.6" stroke-linecap="round" stroke-linejoin="round"/>
		</symbol>
		<symbol id="stack-2" width="100%" height="100%" viewBox="0 0 18 18">
			<path d="M9 4.5L3 7.5L9 10.5L15 7.5L9 4.5Z" stroke="currentColor" fill="none" stroke-width="1.6" stroke-linecap="round" stroke-linejoin="round"/>
			<path d="M3 10.5L9 13.5L15 10.5" stroke="currentColor" fill="none" stroke-width="1.6" stroke-linecap="round" stroke-linejoin="round"/>
		</symbol>
		<symbol id="bed" width="100%" height="100%" viewBox="0 0 18 18">
			<path d="M14.9843 1.125H3.01575C1.35262 1.125 0 2.47762 0 4.14075V9.6915V13.875V16.125C0 16.539 0.336 16.875 0.75 16.875C1.164 16.875 1.5 16.539 1.5 16.125V14.625H16.5V16.125C16.5 16.539 16.836 16.875 17.25 16.875C17.664 16.875 18 16.539 18 16.125V13.875V9.6915V4.14075C18 2.47762 16.6474 1.125 14.9843 1.125ZM16.5 10.125H5.625C5.211 10.125 4.875 10.461 4.875 10.875C4.875 11.289 5.211 11.625 5.625 11.625H16.5V13.125H1.5V11.625H2.625C3.039 11.625 3.375 11.289 3.375 10.875C3.375 10.461 3.039 10.125 2.625 10.125H1.5V9.6915C1.5 9.31875 1.5 8.625 3.3165 8.625H3.375H7.5H10.5H14.625H14.6835C16.5 8.625 16.5 9.31875 16.5 9.6915V10.125ZM4.125 7.125V6.70312C4.125 6.52238 4.27238 6.375 4.45312 6.375H6.42188C6.60262 6.375 6.75 6.52238 6.75 6.70312V7.125H4.125ZM11.25 7.125V6.70312C11.25 6.52238 11.3974 6.375 11.5781 6.375H13.5469C13.7276 6.375 13.875 6.52238 13.875 6.70312V7.125H11.25ZM16.5 7.4265C16.1914 7.30163 15.8186 7.21088 15.375 7.164V6.70312C15.375 5.69513 14.5549 4.875 13.5469 4.875H11.5781C10.5701 4.875 9.75 5.69513 9.75 6.70312V7.125H8.25V6.70312C8.25 5.69513 7.42987 4.875 6.42188 4.875H4.45312C3.44513 4.875 2.625 5.69513 2.625 6.70312V7.164C2.18138 7.21088 1.80862 7.30163 1.5 7.4265V4.14075C1.5 3.30487 2.17987 2.625 3.01575 2.625H14.9846C15.8201 2.625 16.5 3.30487 16.5 4.14075V7.4265Z" fill="currentColor"/>
		</symbol>
		<symbol id="livingroom" width="100%" height="100%" viewBox="0 0 18 18">
			<mask id="path-1-outside-1_204_529" maskUnits="userSpaceOnUse" x="-1" y="0.499878" width="20" height="17" fill="black">
			<rect fill="white" x="-1" y="0.499878" width="20" height="17"/>
			<path fill-rule="evenodd" clip-rule="evenodd" d="M15.7499 6.74988L15.74 6.75012V5.78329C15.74 3.42138 13.8184 1.49988 11.4565 1.49988H6.54347C4.18156 1.49988 2.25999 3.42138 2.25999 5.78329V6.75012L2.25 6.74988C1.00934 6.74988 0 7.75925 0 8.99995C0 9.96056 0.614919 10.8086 1.50005 11.1217V16.125C1.50005 16.3321 1.66792 16.5 1.87506 16.5H4.12503C4.18367 16.5 4.23901 16.4861 4.28844 16.4621H13.7115C13.761 16.4862 13.8163 16.5 13.8749 16.5H16.125C16.3321 16.5 16.5 16.3321 16.5 16.125V11.1217C17.3851 10.8086 18 9.96053 18 8.99995C18 7.75925 16.9907 6.74988 15.7499 6.74988ZM3.74998 9.0034V11.0146V12.3372V15.75H2.25011V10.8374C2.25011 10.659 2.12443 10.5053 1.94963 10.4698C1.25459 10.3288 0.75006 9.7106 0.75006 8.99995C0.75006 8.17286 1.42295 7.49997 2.25004 7.49997C3.07593 7.49997 3.74802 8.17082 3.75009 8.99619L3.74998 9.0034ZM13.4999 15.7121H4.50004V14.5871H6.20674C6.41385 14.5871 6.58176 14.4192 6.58176 14.2121C6.58176 14.005 6.41381 13.8371 6.20674 13.8371H4.50004V12.7122H13.4999V15.7121ZM13.4999 11.9622H4.50004V11.0145C4.50004 10.492 4.92512 10.0669 5.44758 10.0669H12.5524C13.0748 10.0669 13.4999 10.492 13.4999 11.0145V11.9622ZM13.5 9.0034V9.60661C13.2291 9.4238 12.9031 9.31689 12.5525 9.31689H9.37503V6.90323C9.37503 6.69609 9.20712 6.52822 9.00002 6.52822C8.79288 6.52822 8.62497 6.69612 8.62497 6.90323V9.31689H5.44761C5.09696 9.31689 4.77089 9.42376 4.50008 9.60664V9.00744L4.50015 9.00002C4.50015 8.02595 3.87785 7.19478 3.01008 6.88238V5.78336C3.01001 3.83503 4.59518 2.24997 6.54347 2.24997H11.4565C13.4048 2.24997 14.99 3.83503 14.99 5.78332V6.88235C14.1222 7.19485 13.5 8.02665 13.5 9.0034ZM16.0504 10.4698C15.8756 10.5053 15.75 10.659 15.75 10.8374V15.75H14.2499V12.3372V11.0145V8.99992C14.2499 8.17283 14.9229 7.49994 15.7499 7.49994C16.5771 7.49994 17.25 8.17283 17.25 8.99992C17.25 9.7106 16.7455 10.3288 16.0504 10.4698ZM9.00013 5.44189C8.79299 5.44189 8.62512 5.60984 8.62512 5.81691V5.8257C8.62512 6.0328 8.79306 6.20071 9.00013 6.20071C9.20728 6.20071 9.37518 6.03277 9.37518 5.8257V5.81691C9.37515 5.60984 9.20724 5.44189 9.00013 5.44189ZM7.293 14.5874H7.28407C7.07696 14.5874 6.90906 14.4195 6.90906 14.2124C6.90906 14.0053 7.07693 13.8374 7.28407 13.8374H7.293C7.50007 13.8374 7.66801 14.0053 7.66801 14.2124C7.66801 14.4195 7.50011 14.5874 7.293 14.5874Z"/>
			</mask>
			<path fill-rule="evenodd" clip-rule="evenodd" d="M15.7499 6.74988L15.74 6.75012V5.78329C15.74 3.42138 13.8184 1.49988 11.4565 1.49988H6.54347C4.18156 1.49988 2.25999 3.42138 2.25999 5.78329V6.75012L2.25 6.74988C1.00934 6.74988 0 7.75925 0 8.99995C0 9.96056 0.614919 10.8086 1.50005 11.1217V16.125C1.50005 16.3321 1.66792 16.5 1.87506 16.5H4.12503C4.18367 16.5 4.23901 16.4861 4.28844 16.4621H13.7115C13.761 16.4862 13.8163 16.5 13.8749 16.5H16.125C16.3321 16.5 16.5 16.3321 16.5 16.125V11.1217C17.3851 10.8086 18 9.96053 18 8.99995C18 7.75925 16.9907 6.74988 15.7499 6.74988ZM3.74998 9.0034V11.0146V12.3372V15.75H2.25011V10.8374C2.25011 10.659 2.12443 10.5053 1.94963 10.4698C1.25459 10.3288 0.75006 9.7106 0.75006 8.99995C0.75006 8.17286 1.42295 7.49997 2.25004 7.49997C3.07593 7.49997 3.74802 8.17082 3.75009 8.99619L3.74998 9.0034ZM13.4999 15.7121H4.50004V14.5871H6.20674C6.41385 14.5871 6.58176 14.4192 6.58176 14.2121C6.58176 14.005 6.41381 13.8371 6.20674 13.8371H4.50004V12.7122H13.4999V15.7121ZM13.4999 11.9622H4.50004V11.0145C4.50004 10.492 4.92512 10.0669 5.44758 10.0669H12.5524C13.0748 10.0669 13.4999 10.492 13.4999 11.0145V11.9622ZM13.5 9.0034V9.60661C13.2291 9.4238 12.9031 9.31689 12.5525 9.31689H9.37503V6.90323C9.37503 6.69609 9.20712 6.52822 9.00002 6.52822C8.79288 6.52822 8.62497 6.69612 8.62497 6.90323V9.31689H5.44761C5.09696 9.31689 4.77089 9.42376 4.50008 9.60664V9.00744L4.50015 9.00002C4.50015 8.02595 3.87785 7.19478 3.01008 6.88238V5.78336C3.01001 3.83503 4.59518 2.24997 6.54347 2.24997H11.4565C13.4048 2.24997 14.99 3.83503 14.99 5.78332V6.88235C14.1222 7.19485 13.5 8.02665 13.5 9.0034ZM16.0504 10.4698C15.8756 10.5053 15.75 10.659 15.75 10.8374V15.75H14.2499V12.3372V11.0145V8.99992C14.2499 8.17283 14.9229 7.49994 15.7499 7.49994C16.5771 7.49994 17.25 8.17283 17.25 8.99992C17.25 9.7106 16.7455 10.3288 16.0504 10.4698ZM9.00013 5.44189C8.79299 5.44189 8.62512 5.60984 8.62512 5.81691V5.8257C8.62512 6.0328 8.79306 6.20071 9.00013 6.20071C9.20728 6.20071 9.37518 6.03277 9.37518 5.8257V5.81691C9.37515 5.60984 9.20724 5.44189 9.00013 5.44189ZM7.293 14.5874H7.28407C7.07696 14.5874 6.90906 14.4195 6.90906 14.2124C6.90906 14.0053 7.07693 13.8374 7.28407 13.8374H7.293C7.50007 13.8374 7.66801 14.0053 7.66801 14.2124C7.66801 14.4195 7.50011 14.5874 7.293 14.5874Z" fill="currentColor"/>
			<path d="M15.74 6.75012H15.54V6.95513L15.7449 6.95006L15.74 6.75012ZM15.7499 6.74988V6.54981L15.745 6.54994L15.7499 6.74988ZM2.25999 6.75012L2.25506 6.95006L2.45999 6.95511V6.75012H2.25999ZM2.25 6.74988L2.25493 6.54988H2.25V6.74988ZM1.50005 11.1217H1.70005V10.9804L1.56676 10.9332L1.50005 11.1217ZM4.28844 16.4621V16.2621H4.24243L4.20105 16.2822L4.28844 16.4621ZM13.7115 16.4621L13.799 16.2823L13.7576 16.2621H13.7115V16.4621ZM16.5 11.1217L16.4333 10.9332L16.3 10.9804V11.1217H16.5ZM18 8.99995L17.8 8.99994V8.99995H18ZM3.74998 9.0034L3.54998 9.00046V9.0034H3.74998ZM3.74998 15.75V15.95H3.94998V15.75H3.74998ZM2.25011 15.75H2.05011V15.95H2.25011V15.75ZM1.94963 10.4698L1.90984 10.6658L1.90989 10.6658L1.94963 10.4698ZM3.75009 8.99619L3.9501 8.99912L3.95009 8.99569L3.75009 8.99619ZM4.50004 15.7121H4.30004V15.9121H4.50004V15.7121ZM13.4999 15.7121V15.9121H13.6999V15.7121H13.4999ZM4.50004 14.5871V14.3871H4.30004V14.5871H4.50004ZM4.50004 13.8371H4.30004V14.0371H4.50004V13.8371ZM4.50004 12.7122V12.5122H4.30004V12.7122H4.50004ZM13.4999 12.7122H13.6999V12.5122H13.4999V12.7122ZM4.50004 11.9622H4.30004V12.1622H4.50004V11.9622ZM13.4999 11.9622V12.1622H13.6999V11.9622H13.4999ZM13.5 9.60661L13.3881 9.77237L13.7 9.98293V9.60661H13.5ZM9.37503 9.31689H9.17503V9.51689H9.37503V9.31689ZM8.62497 9.31689V9.51689H8.82497V9.31689H8.62497ZM4.50008 9.60664H4.30008V9.98304L4.61201 9.77239L4.50008 9.60664ZM4.50008 9.00744L4.30008 9.00554V9.00744H4.50008ZM4.50015 9.00002L4.70015 9.00192V9.00002H4.50015ZM3.01008 6.88238H2.81008V7.02294L2.94234 7.07056L3.01008 6.88238ZM3.01008 5.78336H3.21008V5.78335L3.01008 5.78336ZM14.99 6.88235L15.0577 7.07052L15.19 7.02289V6.88235H14.99ZM16.0504 10.4698L16.0902 10.6658L16.0902 10.6658L16.0504 10.4698ZM15.75 15.75V15.95H15.95V15.75H15.75ZM14.2499 15.75H14.0499V15.95H14.2499V15.75ZM9.37518 5.81691H9.57518V5.81687L9.37518 5.81691ZM15.7449 6.95006L15.7549 6.94981L15.745 6.54994L15.735 6.55018L15.7449 6.95006ZM15.54 5.78329V6.75012H15.94V5.78329H15.54ZM11.4565 1.69988C13.708 1.69988 15.54 3.53184 15.54 5.78329H15.94C15.94 3.31092 13.9289 1.29988 11.4565 1.29988V1.69988ZM6.54347 1.69988H11.4565V1.29988H6.54347V1.69988ZM2.45999 5.78329C2.45999 3.53184 4.29202 1.69988 6.54347 1.69988V1.29988C4.07111 1.29988 2.05999 3.31092 2.05999 5.78329H2.45999ZM2.45999 6.75012V5.78329H2.05999V6.75012H2.45999ZM2.24508 6.94982L2.25506 6.95006L2.26492 6.55018L2.25493 6.54994L2.24508 6.94982ZM0.2 8.99995C0.2 7.8697 1.1198 6.94988 2.25 6.94988V6.54988C0.898875 6.54988 -0.2 7.6488 -0.2 8.99995H0.2ZM1.56676 10.9332C0.760443 10.6479 0.2 9.87469 0.2 8.99995H-0.2C-0.2 10.0464 0.469395 10.9692 1.43334 11.3103L1.56676 10.9332ZM1.70005 16.125V11.1217H1.30005V16.125H1.70005ZM1.87506 16.3C1.77838 16.3 1.70005 16.2217 1.70005 16.125H1.30005C1.30005 16.4426 1.55746 16.7 1.87506 16.7V16.3ZM4.12503 16.3H1.87506V16.7H4.12503V16.3ZM4.20105 16.2822C4.17734 16.2937 4.15176 16.3 4.12503 16.3V16.7C4.21558 16.7 4.30067 16.6785 4.37583 16.642L4.20105 16.2822ZM13.7115 16.2621H4.28844V16.6621H13.7115V16.2621ZM13.8749 16.3C13.8481 16.3 13.8226 16.2938 13.799 16.2823L13.624 16.642C13.6993 16.6786 13.7844 16.7 13.8749 16.7V16.3ZM16.125 16.3H13.8749V16.7H16.125V16.3ZM16.3 16.125C16.3 16.2216 16.2217 16.3 16.125 16.3V16.7C16.4426 16.7 16.7 16.4425 16.7 16.125H16.3ZM16.3 11.1217V16.125H16.7V11.1217H16.3ZM17.8 8.99995C17.8 9.87466 17.2396 10.6479 16.4333 10.9332L16.5667 11.3103C17.5306 10.9692 18.2 10.0464 18.2 8.99995H17.8ZM15.7499 6.94988C16.8802 6.94988 17.8 7.86971 17.8 8.99994L18.2 8.99996C18.2 7.64879 17.1011 6.54988 15.7499 6.54988V6.94988ZM3.94998 11.0146V9.0034H3.54998V11.0146H3.94998ZM3.94998 12.3372V11.0146H3.54998V12.3372H3.94998ZM3.94998 15.75V12.3372H3.54998V15.75H3.94998ZM2.25011 15.95H3.74998V15.55H2.25011V15.95ZM2.05011 10.8374V15.75H2.45011V10.8374H2.05011ZM1.90989 10.6658C1.99144 10.6824 2.05011 10.7541 2.05011 10.8374H2.45011C2.45011 10.5639 2.25742 10.3282 1.98937 10.2738L1.90989 10.6658ZM0.55006 8.99995C0.55006 9.80546 1.12132 10.5058 1.90984 10.6658L1.98941 10.2738C1.38785 10.1517 0.95006 9.61574 0.95006 8.99995H0.55006ZM2.25004 7.29997C1.3125 7.29997 0.55006 8.06241 0.55006 8.99995H0.95006C0.95006 8.28332 1.53341 7.69997 2.25004 7.69997V7.29997ZM3.95009 8.99569C3.94774 8.06009 3.18623 7.29997 2.25004 7.29997V7.69997C2.96564 7.69997 3.54829 8.28155 3.55009 8.99669L3.95009 8.99569ZM3.94996 9.00633L3.95007 8.99912L3.55011 8.99326L3.55001 9.00046L3.94996 9.00633ZM4.50004 15.9121H13.4999V15.5121H4.50004V15.9121ZM4.30004 14.5871V15.7121H4.70004V14.5871H4.30004ZM6.20674 14.3871H4.50004V14.7871H6.20674V14.3871ZM6.38176 14.2121C6.38176 14.3087 6.30338 14.3871 6.20674 14.3871V14.7871C6.52432 14.7871 6.78176 14.5296 6.78176 14.2121H6.38176ZM6.20674 14.0371C6.30337 14.0371 6.38176 14.1155 6.38176 14.2121H6.78176C6.78176 13.8945 6.52426 13.6371 6.20674 13.6371V14.0371ZM4.50004 14.0371H6.20674V13.6371H4.50004V14.0371ZM4.30004 12.7122V13.8371H4.70004V12.7122H4.30004ZM13.4999 12.5122H4.50004V12.9122H13.4999V12.5122ZM13.6999 15.7121V12.7122H13.2999V15.7121H13.6999ZM4.50004 12.1622H13.4999V11.7622H4.50004V12.1622ZM4.30004 11.0145V11.9622H4.70004V11.0145H4.30004ZM5.44758 9.86687C4.81464 9.86687 4.30004 10.3815 4.30004 11.0145H4.70004C4.70004 10.6024 5.0356 10.2669 5.44758 10.2669V9.86687ZM12.5524 9.86687H5.44758V10.2669H12.5524V9.86687ZM13.6999 11.0145C13.6999 10.3816 13.1853 9.86687 12.5524 9.86687V10.2669C12.9643 10.2669 13.2999 10.6024 13.2999 11.0145H13.6999ZM13.6999 11.9622V11.0145H13.2999V11.9622H13.6999ZM13.7 9.60661V9.0034H13.3V9.60661H13.7ZM12.5525 9.51689C12.8618 9.51689 13.1491 9.61108 13.3881 9.77237L13.6119 9.44084C13.3092 9.23651 12.9443 9.11689 12.5525 9.11689V9.51689ZM9.37503 9.51689H12.5525V9.11689H9.37503V9.51689ZM9.17503 6.90323V9.31689H9.57503V6.90323H9.17503ZM9.00002 6.72822C9.09668 6.72822 9.17503 6.80656 9.17503 6.90323H9.57503C9.57503 6.58562 9.31757 6.32822 9.00002 6.32822V6.72822ZM8.82497 6.90323C8.82497 6.80659 8.90332 6.72822 9.00002 6.72822V6.32822C8.68243 6.32822 8.42497 6.58565 8.42497 6.90323H8.82497ZM8.82497 9.31689V6.90323H8.42497V9.31689H8.82497ZM5.44761 9.51689H8.62497V9.11689H5.44761V9.51689ZM4.61201 9.77239C4.85091 9.61106 5.13822 9.51689 5.44761 9.51689V9.11689C5.05571 9.11689 4.69087 9.23646 4.38815 9.4409L4.61201 9.77239ZM4.30008 9.00744V9.60664H4.70008V9.00744H4.30008ZM4.30016 8.99812L4.30009 9.00554L4.70007 9.00934L4.70014 9.00192L4.30016 8.99812ZM2.94234 7.07056C3.73353 7.35539 4.30015 8.11319 4.30015 9.00002H4.70015C4.70015 7.9387 4.02217 7.03417 3.07783 6.6942L2.94234 7.07056ZM2.81008 5.78336V6.88238H3.21008V5.78336H2.81008ZM6.54347 2.04997C4.48473 2.04997 2.81001 3.72457 2.81008 5.78337L3.21008 5.78335C3.21002 3.94549 4.70563 2.44997 6.54347 2.44997V2.04997ZM11.4565 2.04997H6.54347V2.44997H11.4565V2.04997ZM15.19 5.78332C15.19 3.72457 13.5153 2.04997 11.4565 2.04997V2.44997C13.2944 2.44997 14.79 3.94549 14.79 5.78332H15.19ZM15.19 6.88235V5.78332H14.79V6.88235H15.19ZM13.7 9.0034C13.7 8.11369 14.2667 7.35538 15.0577 7.07052L14.9222 6.69418C13.9777 7.03432 13.3 7.93961 13.3 9.0034H13.7ZM15.95 10.8374C15.95 10.7541 16.0087 10.6824 16.0902 10.6658L16.0107 10.2738C15.7426 10.3282 15.55 10.5639 15.55 10.8374H15.95ZM15.95 15.75V10.8374H15.55V15.75H15.95ZM14.2499 15.95H15.75V15.55H14.2499V15.95ZM14.0499 12.3372V15.75H14.4499V12.3372H14.0499ZM14.0499 11.0145V12.3372H14.4499V11.0145H14.0499ZM14.0499 8.99992V11.0145H14.4499V8.99992H14.0499ZM15.7499 7.29994C14.8124 7.29994 14.0499 8.06237 14.0499 8.99992H14.4499C14.4499 8.28329 15.0333 7.69994 15.7499 7.69994V7.29994ZM17.45 8.99992C17.45 8.06237 16.6875 7.29994 15.7499 7.29994V7.69994C16.4666 7.69994 17.05 8.28329 17.05 8.99992H17.45ZM16.0902 10.6658C16.8788 10.5058 17.45 9.80544 17.45 8.99992H17.05C17.05 9.61576 16.6122 10.1517 16.0107 10.2738L16.0902 10.6658ZM8.82512 5.81691C8.82512 5.72027 8.90347 5.64189 9.00013 5.64189V5.24189C8.68251 5.24189 8.42512 5.4994 8.42512 5.81691H8.82512ZM8.82512 5.8257V5.81691H8.42512V5.8257H8.82512ZM9.00013 6.00071C8.90351 6.00071 8.82512 5.92233 8.82512 5.8257H8.42512C8.42512 6.14327 8.68262 6.40071 9.00013 6.40071V6.00071ZM9.17518 5.8257C9.17518 5.92231 9.09682 6.00071 9.00013 6.00071V6.40071C9.31773 6.40071 9.57518 6.14322 9.57518 5.8257H9.17518ZM9.17518 5.81691V5.8257H9.57518V5.81691H9.17518ZM9.00013 5.64189C9.09676 5.64189 9.17517 5.72028 9.17518 5.81694L9.57518 5.81687C9.57513 5.49939 9.31772 5.24189 9.00013 5.24189V5.64189ZM7.28407 14.7874H7.293V14.3874H7.28407V14.7874ZM6.70906 14.2124C6.70906 14.53 6.96651 14.7874 7.28407 14.7874V14.3874C7.18742 14.3874 7.10906 14.3091 7.10906 14.2124H6.70906ZM7.28407 13.6374C6.96645 13.6374 6.70906 13.8949 6.70906 14.2124H7.10906C7.10906 14.1158 7.18741 14.0374 7.28407 14.0374V13.6374ZM7.293 13.6374H7.28407V14.0374H7.293V13.6374ZM7.86801 14.2124C7.86801 13.8948 7.61052 13.6374 7.293 13.6374V14.0374C7.38963 14.0374 7.46801 14.1158 7.46801 14.2124H7.86801ZM7.293 14.7874C7.61056 14.7874 7.86801 14.53 7.86801 14.2124H7.46801C7.46801 14.3091 7.38965 14.3874 7.293 14.3874V14.7874Z" fill="currentColor" mask="url(#path-1-outside-1_204_529)"/>
		</symbol>
		<symbol id="closet" width="100%" height="100%" viewBox="0 0 18 18">
			<path d="M8.99999 1.125H1.82249V16.1925H8.99999V1.125Z" stroke="currentColor" stroke-width="1.4325" stroke-miterlimit="10"/>
			<path d="M12.585 1.125H9V12.6H12.585V1.125Z" stroke="currentColor" stroke-width="1.4325" stroke-miterlimit="10"/>
			<path d="M16.17 1.125H12.585V12.6H16.17V1.125Z" stroke="currentColor" stroke-width="1.4325" stroke-miterlimit="10"/>
			<path d="M16.1775 12.6H9V16.185H16.1775V12.6Z" stroke="currentColor" stroke-width="1.4325" stroke-miterlimit="10"/>
			<path d="M3.97501 17.625V16.1925" stroke="currentColor" stroke-width="1.4325" stroke-miterlimit="10"/>
			<path d="M14.025 17.625V16.1925" stroke="currentColor" stroke-width="1.4325" stroke-miterlimit="10"/>
			<path d="M6.1275 8.30249V9.73499" stroke="currentColor" stroke-width="1.4325" stroke-miterlimit="10"/>
			<path d="M12.585 14.04V12.6" stroke="currentColor" stroke-width="1.4325" stroke-miterlimit="10"/>
		</symbol>
		<symbol id="citchen" width="100%" height="100%" viewBox="0 0 18 18">
			<mask id="path-1-outside-1_204_542" maskUnits="userSpaceOnUse" x="0.960693" y="-1" width="16" height="20" fill="black">
				<rect fill="white" x="0.960693" y="-1" width="16" height="20"/>
				<path fill-rule="evenodd" clip-rule="evenodd" d="M15.6397 1.36579H14.4444L14.0803 0.273305C14.0259 0.110074 13.8731 0 13.7011 0H10.3024C10.1304 0 9.97762 0.110074 9.9232 0.273305L9.55901 1.36579H8.44122L8.07704 0.273305C8.02265 0.110074 7.86993 0 7.69784 0H4.29915C4.12713 0 3.97437 0.110074 3.91995 0.273305L3.5558 1.36579H2.3606C2.13985 1.36579 1.9609 1.54473 1.9609 1.76548V5.9246L1.96069 5.92889L1.9609 5.93314V16.5671C1.9609 16.7878 2.13985 16.9668 2.3606 16.9668H3.56371V17.6003C3.56371 17.8211 3.74266 18 3.9634 18C4.18415 18 4.3631 17.8211 4.3631 17.6003V16.9668H13.6367V17.6003C13.6367 17.8211 13.8156 18 14.0364 18C14.2571 18 14.4361 17.8211 14.4361 17.6003V16.9668H15.6396C15.8603 16.9668 16.0393 16.7878 16.0393 16.5671V1.76551C16.0394 1.54473 15.8604 1.36579 15.6397 1.36579ZM10.5904 0.799418H13.4129L13.6017 1.36579H10.4016L10.5904 0.799418ZM4.58725 0.799418H7.40977L7.59856 1.36579H4.39846L4.58725 0.799418ZM2.76032 2.1652H3.84387H8.15312H9.84708H14.1563H15.2399V5.52913H2.76032V2.1652ZM15.2399 16.1673H2.76032V6.32855H15.24V16.1673H15.2399ZM12.3873 8.68677H12.2774C12.0566 8.68677 11.8777 8.86571 11.8777 9.08646C11.8777 9.30721 12.0566 9.48615 12.2774 9.48615H12.3873C12.6081 9.48615 12.787 9.30721 12.787 9.08646C12.787 8.86571 12.6081 8.68677 12.3873 8.68677ZM13.4916 8.68677H14.0364C14.2571 8.68677 14.4361 8.86571 14.4361 9.08646V15.0022C14.4361 15.2229 14.2572 15.4019 14.0364 15.4019H3.96341C3.74267 15.4019 3.56372 15.2229 3.56372 15.0022V9.08649C3.56372 8.86575 3.74267 8.6868 3.96341 8.6868H11.1433C11.364 8.6868 11.543 8.86575 11.543 9.08649C11.543 9.30724 11.364 9.48619 11.1433 9.48619H4.36307V14.6024H13.6367V9.48615H13.4916C13.2708 9.48615 13.0919 9.30721 13.0919 9.08646C13.0919 8.86571 13.2708 8.68677 13.4916 8.68677ZM5.46153 3.48061C5.24078 3.48061 5.06183 3.65955 5.06183 3.8803C5.06183 4.07292 4.90511 4.22965 4.71249 4.22965C4.51987 4.22965 4.36314 4.07295 4.36314 3.8803C4.36314 3.68764 4.51983 3.53095 4.71249 3.53095C4.93323 3.53095 5.11218 3.35201 5.11218 3.13126C5.11218 2.91051 4.93323 2.73157 4.71249 2.73157C4.07908 2.73157 3.56372 3.24692 3.56372 3.88033C3.56372 4.51374 4.07908 5.0291 4.71249 5.0291C5.34593 5.0291 5.86125 4.51374 5.86125 3.88033C5.86125 3.65955 5.68227 3.48061 5.46153 3.48061ZM7.91999 3.8803C7.91999 3.65955 8.09893 3.48061 8.31968 3.48061C8.54043 3.48061 8.71941 3.65955 8.71941 3.88033C8.71941 4.51374 8.20405 5.0291 7.57064 5.0291C6.93723 5.0291 6.42188 4.51374 6.42188 3.88033C6.42188 3.24692 6.93723 2.73157 7.57064 2.73157C7.79139 2.73157 7.97033 2.91051 7.97033 3.13126C7.97033 3.35201 7.79139 3.53095 7.57064 3.53095C7.37802 3.53095 7.22129 3.68764 7.22129 3.8803C7.22129 4.07295 7.37798 4.22965 7.57064 4.22965C7.7633 4.22965 7.91999 4.07292 7.91999 3.8803ZM11.1781 3.48061C10.9573 3.48061 10.7784 3.65955 10.7784 3.8803C10.7784 4.07292 10.6217 4.22965 10.429 4.22965C10.2364 4.22965 10.0797 4.07295 10.0797 3.8803C10.0797 3.68764 10.2364 3.53095 10.429 3.53095C10.6498 3.53095 10.8287 3.35201 10.8287 3.13126C10.8287 2.91051 10.6498 2.73157 10.429 2.73157C9.79563 2.73157 9.28027 3.24692 9.28027 3.88033C9.28027 4.51374 9.79563 5.0291 10.429 5.0291C11.0625 5.0291 11.5778 4.51374 11.5778 3.88033C11.5778 3.65955 11.3988 3.48061 11.1781 3.48061ZM13.6368 3.8803C13.6368 3.65955 13.8157 3.48061 14.0365 3.48061C14.2572 3.48061 14.4362 3.65955 14.4362 3.88033C14.4362 4.51374 13.9208 5.0291 13.2874 5.0291C12.654 5.0291 12.1387 4.51374 12.1387 3.88033C12.1387 3.24692 12.654 2.73157 13.2874 2.73157C13.5082 2.73157 13.6871 2.91051 13.6871 3.13126C13.6871 3.35201 13.5082 3.53095 13.2874 3.53095C13.0948 3.53095 12.9381 3.68764 12.9381 3.8803C12.9381 4.07295 13.0948 4.22965 13.2874 4.22965C13.4801 4.22965 13.6368 4.07292 13.6368 3.8803Z"/>
				</mask>
				<path fill-rule="evenodd" clip-rule="evenodd" d="M15.6397 1.36579H14.4444L14.0803 0.273305C14.0259 0.110074 13.8731 0 13.7011 0H10.3024C10.1304 0 9.97762 0.110074 9.9232 0.273305L9.55901 1.36579H8.44122L8.07704 0.273305C8.02265 0.110074 7.86993 0 7.69784 0H4.29915C4.12713 0 3.97437 0.110074 3.91995 0.273305L3.5558 1.36579H2.3606C2.13985 1.36579 1.9609 1.54473 1.9609 1.76548V5.9246L1.96069 5.92889L1.9609 5.93314V16.5671C1.9609 16.7878 2.13985 16.9668 2.3606 16.9668H3.56371V17.6003C3.56371 17.8211 3.74266 18 3.9634 18C4.18415 18 4.3631 17.8211 4.3631 17.6003V16.9668H13.6367V17.6003C13.6367 17.8211 13.8156 18 14.0364 18C14.2571 18 14.4361 17.8211 14.4361 17.6003V16.9668H15.6396C15.8603 16.9668 16.0393 16.7878 16.0393 16.5671V1.76551C16.0394 1.54473 15.8604 1.36579 15.6397 1.36579ZM10.5904 0.799418H13.4129L13.6017 1.36579H10.4016L10.5904 0.799418ZM4.58725 0.799418H7.40977L7.59856 1.36579H4.39846L4.58725 0.799418ZM2.76032 2.1652H3.84387H8.15312H9.84708H14.1563H15.2399V5.52913H2.76032V2.1652ZM15.2399 16.1673H2.76032V6.32855H15.24V16.1673H15.2399ZM12.3873 8.68677H12.2774C12.0566 8.68677 11.8777 8.86571 11.8777 9.08646C11.8777 9.30721 12.0566 9.48615 12.2774 9.48615H12.3873C12.6081 9.48615 12.787 9.30721 12.787 9.08646C12.787 8.86571 12.6081 8.68677 12.3873 8.68677ZM13.4916 8.68677H14.0364C14.2571 8.68677 14.4361 8.86571 14.4361 9.08646V15.0022C14.4361 15.2229 14.2572 15.4019 14.0364 15.4019H3.96341C3.74267 15.4019 3.56372 15.2229 3.56372 15.0022V9.08649C3.56372 8.86575 3.74267 8.6868 3.96341 8.6868H11.1433C11.364 8.6868 11.543 8.86575 11.543 9.08649C11.543 9.30724 11.364 9.48619 11.1433 9.48619H4.36307V14.6024H13.6367V9.48615H13.4916C13.2708 9.48615 13.0919 9.30721 13.0919 9.08646C13.0919 8.86571 13.2708 8.68677 13.4916 8.68677ZM5.46153 3.48061C5.24078 3.48061 5.06183 3.65955 5.06183 3.8803C5.06183 4.07292 4.90511 4.22965 4.71249 4.22965C4.51987 4.22965 4.36314 4.07295 4.36314 3.8803C4.36314 3.68764 4.51983 3.53095 4.71249 3.53095C4.93323 3.53095 5.11218 3.35201 5.11218 3.13126C5.11218 2.91051 4.93323 2.73157 4.71249 2.73157C4.07908 2.73157 3.56372 3.24692 3.56372 3.88033C3.56372 4.51374 4.07908 5.0291 4.71249 5.0291C5.34593 5.0291 5.86125 4.51374 5.86125 3.88033C5.86125 3.65955 5.68227 3.48061 5.46153 3.48061ZM7.91999 3.8803C7.91999 3.65955 8.09893 3.48061 8.31968 3.48061C8.54043 3.48061 8.71941 3.65955 8.71941 3.88033C8.71941 4.51374 8.20405 5.0291 7.57064 5.0291C6.93723 5.0291 6.42188 4.51374 6.42188 3.88033C6.42188 3.24692 6.93723 2.73157 7.57064 2.73157C7.79139 2.73157 7.97033 2.91051 7.97033 3.13126C7.97033 3.35201 7.79139 3.53095 7.57064 3.53095C7.37802 3.53095 7.22129 3.68764 7.22129 3.8803C7.22129 4.07295 7.37798 4.22965 7.57064 4.22965C7.7633 4.22965 7.91999 4.07292 7.91999 3.8803ZM11.1781 3.48061C10.9573 3.48061 10.7784 3.65955 10.7784 3.8803C10.7784 4.07292 10.6217 4.22965 10.429 4.22965C10.2364 4.22965 10.0797 4.07295 10.0797 3.8803C10.0797 3.68764 10.2364 3.53095 10.429 3.53095C10.6498 3.53095 10.8287 3.35201 10.8287 3.13126C10.8287 2.91051 10.6498 2.73157 10.429 2.73157C9.79563 2.73157 9.28027 3.24692 9.28027 3.88033C9.28027 4.51374 9.79563 5.0291 10.429 5.0291C11.0625 5.0291 11.5778 4.51374 11.5778 3.88033C11.5778 3.65955 11.3988 3.48061 11.1781 3.48061ZM13.6368 3.8803C13.6368 3.65955 13.8157 3.48061 14.0365 3.48061C14.2572 3.48061 14.4362 3.65955 14.4362 3.88033C14.4362 4.51374 13.9208 5.0291 13.2874 5.0291C12.654 5.0291 12.1387 4.51374 12.1387 3.88033C12.1387 3.24692 12.654 2.73157 13.2874 2.73157C13.5082 2.73157 13.6871 2.91051 13.6871 3.13126C13.6871 3.35201 13.5082 3.53095 13.2874 3.53095C13.0948 3.53095 12.9381 3.68764 12.9381 3.8803C12.9381 4.07295 13.0948 4.22965 13.2874 4.22965C13.4801 4.22965 13.6368 4.07292 13.6368 3.8803Z" fill="currentColor"/>
				<path d="M14.4444 1.36579L14.3496 1.39741L14.3724 1.46579H14.4444V1.36579ZM14.0803 0.273305L13.9854 0.304915L13.9854 0.304927L14.0803 0.273305ZM9.9232 0.273305L9.82833 0.241676L9.82833 0.24168L9.9232 0.273305ZM9.55901 1.36579V1.46579H9.63109L9.65388 1.39741L9.55901 1.36579ZM8.44122 1.36579L8.34635 1.39741L8.36915 1.46579H8.44122V1.36579ZM8.07704 0.273305L7.98216 0.304915L7.98217 0.304929L8.07704 0.273305ZM3.91995 0.273305L3.82508 0.241676L3.82508 0.241683L3.91995 0.273305ZM3.5558 1.36579V1.46579H3.62788L3.65067 1.39741L3.5558 1.36579ZM1.9609 5.9246L2.0609 5.92952V5.9246H1.9609ZM1.96069 5.92889L1.86033 5.92395L1.86082 5.93384L1.96069 5.92889ZM1.9609 5.93314L2.06103 5.93314L2.06078 5.92819L1.9609 5.93314ZM3.56371 16.9668H3.66371V16.8668H3.56371V16.9668ZM4.3631 16.9668V16.8668H4.2631V16.9668H4.3631ZM13.6367 16.9668H13.7367V16.8668H13.6367V16.9668ZM14.4361 16.9668V16.8668H14.3361V16.9668H14.4361ZM16.0393 1.76551L15.9393 1.76546V1.76551H16.0393ZM13.4129 0.799418L13.5078 0.767795L13.485 0.699418H13.4129V0.799418ZM10.5904 0.799418V0.699418H10.5184L10.4956 0.76779L10.5904 0.799418ZM13.6017 1.36579V1.46579H13.7405L13.6966 1.33416L13.6017 1.36579ZM10.4016 1.36579L10.3067 1.33416L10.2629 1.46579H10.4016V1.36579ZM7.40977 0.799418L7.50464 0.767795L7.48185 0.699418H7.40977V0.799418ZM4.58725 0.799418V0.699418H4.51518L4.49238 0.767795L4.58725 0.799418ZM7.59856 1.36579V1.46579H7.7373L7.69343 1.33416L7.59856 1.36579ZM4.39846 1.36579L4.30359 1.33416L4.25972 1.46579H4.39846V1.36579ZM2.76032 2.1652V2.0652H2.66032V2.1652H2.76032ZM15.2399 2.1652H15.3399V2.0652H15.2399V2.1652ZM15.2399 5.52913V5.62913H15.3399V5.52913H15.2399ZM2.76032 5.52913H2.66032V5.62913H2.76032V5.52913ZM2.76032 16.1673H2.66032V16.2673H2.76032V16.1673ZM2.76032 6.32855V6.22855H2.66032V6.32855H2.76032ZM15.24 6.32855H15.34V6.22855H15.24V6.32855ZM15.24 16.1673V16.2673H15.34V16.1673H15.24ZM14.4361 9.08646L14.5361 9.08646L14.5361 9.08644L14.4361 9.08646ZM4.36307 9.48619V9.38619H4.26307V9.48619H4.36307ZM4.36307 14.6024H4.26307V14.7024H4.36307V14.6024ZM13.6367 14.6024V14.7024H13.7367V14.6024H13.6367ZM13.6367 9.48615H13.7367V9.38615H13.6367V9.48615ZM11.5778 3.88033L11.6778 3.88033L11.6778 3.88032L11.5778 3.88033ZM14.4362 3.88033L14.5362 3.88033L14.5362 3.88032L14.4362 3.88033ZM14.4444 1.46579H15.6397V1.26579H14.4444V1.46579ZM13.9854 0.304927L14.3496 1.39741L14.5393 1.33416L14.1752 0.241683L13.9854 0.304927ZM13.7011 0.1C13.8301 0.1 13.9446 0.182546 13.9854 0.304915L14.1752 0.241694C14.1072 0.0376027 13.9161 -0.1 13.7011 -0.1V0.1ZM10.3024 0.1H13.7011V-0.1H10.3024V0.1ZM10.0181 0.304934C10.0589 0.182535 10.1734 0.1 10.3024 0.1V-0.1C10.0873 -0.1 9.89637 0.0376138 9.82833 0.241676L10.0181 0.304934ZM9.65388 1.39741L10.0181 0.304929L9.82833 0.24168L9.46415 1.33416L9.65388 1.39741ZM8.44122 1.46579H9.55901V1.26579H8.44122V1.46579ZM7.98217 0.304929L8.34635 1.39741L8.53609 1.33416L8.1719 0.24168L7.98217 0.304929ZM7.69784 0.1C7.8269 0.1 7.94139 0.182536 7.98216 0.304915L8.17191 0.241694C8.10391 0.0376126 7.91297 -0.1 7.69784 -0.1V0.1ZM4.29915 0.1H7.69784V-0.1H4.29915V0.1ZM4.01482 0.304934C4.05563 0.182535 4.17017 0.1 4.29915 0.1V-0.1C4.08409 -0.1 3.89312 0.0376138 3.82508 0.241676L4.01482 0.304934ZM3.65067 1.39741L4.01482 0.304927L3.82508 0.241683L3.46093 1.33416L3.65067 1.39741ZM2.3606 1.46579H3.5558V1.26579H2.3606V1.46579ZM2.0609 1.76548C2.0609 1.59996 2.19508 1.46579 2.3606 1.46579V1.26579C2.08462 1.26579 1.8609 1.4895 1.8609 1.76548H2.0609ZM2.0609 5.9246V1.76548H1.8609V5.9246H2.0609ZM2.06057 5.9338L2.06078 5.92951L1.86103 5.91969L1.86081 5.92398L2.06057 5.9338ZM2.06078 5.92819L2.06057 5.92394L1.86082 5.93384L1.86103 5.9381L2.06078 5.92819ZM2.0609 16.5671V5.93314H1.8609V16.5671H2.0609ZM2.3606 16.8668C2.19508 16.8668 2.0609 16.7326 2.0609 16.5671H1.8609C1.8609 16.843 2.08462 17.0668 2.3606 17.0668V16.8668ZM3.56371 16.8668H2.3606V17.0668H3.56371V16.8668ZM3.66371 17.6003V16.9668H3.46371V17.6003H3.66371ZM3.9634 17.9C3.79789 17.9 3.66371 17.7658 3.66371 17.6003H3.46371C3.46371 17.8763 3.68743 18.1 3.9634 18.1V17.9ZM4.2631 17.6003C4.2631 17.7658 4.12892 17.9 3.9634 17.9V18.1C4.23938 18.1 4.4631 17.8763 4.4631 17.6003H4.2631ZM4.2631 16.9668V17.6003H4.4631V16.9668H4.2631ZM13.6367 16.8668H4.3631V17.0668H13.6367V16.8668ZM13.7367 17.6003V16.9668H13.5367V17.6003H13.7367ZM14.0364 17.9C13.8709 17.9 13.7367 17.7658 13.7367 17.6003H13.5367C13.5367 17.8763 13.7604 18.1 14.0364 18.1V17.9ZM14.3361 17.6003C14.3361 17.7658 14.2019 17.9 14.0364 17.9V18.1C14.3123 18.1 14.5361 17.8763 14.5361 17.6003H14.3361ZM14.3361 16.9668V17.6003H14.5361V16.9668H14.3361ZM15.6396 16.8668H14.4361V17.0668H15.6396V16.8668ZM15.9393 16.5671C15.9393 16.7326 15.8051 16.8668 15.6396 16.8668V17.0668C15.9155 17.0668 16.1393 16.843 16.1393 16.5671H15.9393ZM15.9393 1.76551V16.5671H16.1393V1.76551H15.9393ZM15.6397 1.46579C15.8052 1.46579 15.9393 1.59995 15.9393 1.76546L16.1393 1.76556C16.1394 1.48951 15.9156 1.26579 15.6397 1.26579V1.46579ZM13.4129 0.699418H10.5904V0.899418H13.4129V0.699418ZM13.6966 1.33416L13.5078 0.767795L13.3181 0.831041L13.5069 1.39741L13.6966 1.33416ZM10.4016 1.46579H13.6017V1.26579H10.4016V1.46579ZM10.4956 0.76779L10.3067 1.33416L10.4965 1.39741L10.6853 0.831046L10.4956 0.76779ZM7.40977 0.699418H4.58725V0.899418H7.40977V0.699418ZM7.69343 1.33416L7.50464 0.767795L7.3149 0.831041L7.50369 1.39741L7.69343 1.33416ZM4.39846 1.46579H7.59856V1.26579H4.39846V1.46579ZM4.49238 0.767795L4.30359 1.33416L4.49333 1.39741L4.68212 0.831041L4.49238 0.767795ZM3.84387 2.0652H2.76032V2.2652H3.84387V2.0652ZM8.15312 2.0652H3.84387V2.2652H8.15312V2.0652ZM9.84708 2.0652H8.15312V2.2652H9.84708V2.0652ZM14.1563 2.0652H9.84708V2.2652H14.1563V2.0652ZM15.2399 2.0652H14.1563V2.2652H15.2399V2.0652ZM15.3399 5.52913V2.1652H15.1399V5.52913H15.3399ZM2.76032 5.62913H15.2399V5.42913H2.76032V5.62913ZM2.66032 2.1652V5.52913H2.86032V2.1652H2.66032ZM2.76032 16.2673H15.2399V16.0673H2.76032V16.2673ZM2.66032 6.32855V16.1673H2.86032V6.32855H2.66032ZM15.24 6.22855H2.76032V6.42855H15.24V6.22855ZM15.34 16.1673V6.32855H15.14V16.1673H15.34ZM15.2399 16.2673H15.24V16.0673H15.2399V16.2673ZM12.2774 8.78677H12.3873V8.58677H12.2774V8.78677ZM11.9777 9.08646C11.9777 8.92094 12.1119 8.78677 12.2774 8.78677V8.58677C12.0014 8.58677 11.7777 8.81048 11.7777 9.08646H11.9777ZM12.2774 9.38615C12.1119 9.38615 11.9777 9.25198 11.9777 9.08646H11.7777C11.7777 9.36243 12.0014 9.58615 12.2774 9.58615V9.38615ZM12.3873 9.38615H12.2774V9.58615H12.3873V9.38615ZM12.687 9.08646C12.687 9.25198 12.5528 9.38615 12.3873 9.38615V9.58615C12.6633 9.58615 12.887 9.36243 12.887 9.08646H12.687ZM12.3873 8.78677C12.5529 8.78677 12.687 8.92094 12.687 9.08646H12.887C12.887 8.81049 12.6633 8.58677 12.3873 8.58677V8.78677ZM14.0364 8.58677H13.4916V8.78677H14.0364V8.58677ZM14.5361 9.08644C14.5361 8.81048 14.3124 8.58677 14.0364 8.58677V8.78677C14.2019 8.78677 14.3361 8.92094 14.3361 9.08648L14.5361 9.08644ZM14.5361 15.0022V9.08646H14.3361V15.0022H14.5361ZM14.0364 15.5019C14.3124 15.5019 14.5361 15.2781 14.5361 15.0022H14.3361C14.3361 15.1677 14.2019 15.3019 14.0364 15.3019V15.5019ZM3.96341 15.5019H14.0364V15.3019H3.96341V15.5019ZM3.46372 15.0022C3.46372 15.2781 3.68744 15.5019 3.96341 15.5019V15.3019C3.79789 15.3019 3.66372 15.1677 3.66372 15.0022H3.46372ZM3.46372 9.08649V15.0022H3.66372V9.08649H3.46372ZM3.96341 8.5868C3.68744 8.5868 3.46372 8.81052 3.46372 9.08649H3.66372C3.66372 8.92098 3.79789 8.7868 3.96341 8.7868V8.5868ZM11.1433 8.5868H3.96341V8.7868H11.1433V8.5868ZM11.643 9.08649C11.643 8.81052 11.4193 8.5868 11.1433 8.5868V8.7868C11.3088 8.7868 11.443 8.92098 11.443 9.08649H11.643ZM11.1433 9.58619C11.4193 9.58619 11.643 9.36247 11.643 9.08649H11.443C11.443 9.25201 11.3088 9.38619 11.1433 9.38619V9.58619ZM4.36307 9.58619H11.1433V9.38619H4.36307V9.58619ZM4.46307 14.6024V9.48619H4.26307V14.6024H4.46307ZM13.6367 14.5024H4.36307V14.7024H13.6367V14.5024ZM13.5367 9.48615V14.6024H13.7367V9.48615H13.5367ZM13.4916 9.58615H13.6367V9.38615H13.4916V9.58615ZM12.9919 9.08646C12.9919 9.36243 13.2156 9.58615 13.4916 9.58615V9.38615C13.326 9.38615 13.1919 9.25198 13.1919 9.08646H12.9919ZM13.4916 8.58677C13.2156 8.58677 12.9919 8.81048 12.9919 9.08646H13.1919C13.1919 8.92094 13.326 8.78677 13.4916 8.78677V8.58677ZM5.16183 3.8803C5.16183 3.71478 5.29601 3.58061 5.46153 3.58061V3.38061C5.18555 3.38061 4.96183 3.60432 4.96183 3.8803H5.16183ZM4.71249 4.32965C4.96034 4.32965 5.16183 4.12815 5.16183 3.8803H4.96183C4.96183 4.01769 4.84988 4.12965 4.71249 4.12965V4.32965ZM4.26314 3.8803C4.26314 4.12819 4.46464 4.32965 4.71249 4.32965V4.12965C4.57509 4.12965 4.46314 4.01772 4.46314 3.8803H4.26314ZM4.71249 3.43095C4.4646 3.43095 4.26314 3.63241 4.26314 3.8803H4.46314C4.46314 3.74287 4.57506 3.63095 4.71249 3.63095V3.43095ZM5.01218 3.13126C5.01218 3.29678 4.878 3.43095 4.71249 3.43095V3.63095C4.98846 3.63095 5.21218 3.40723 5.21218 3.13126H5.01218ZM4.71249 2.83157C4.878 2.83157 5.01218 2.96574 5.01218 3.13126H5.21218C5.21218 2.85528 4.98846 2.63157 4.71249 2.63157V2.83157ZM3.66372 3.88033C3.66372 3.30215 4.1343 2.83157 4.71249 2.83157V2.63157C4.02385 2.63157 3.46372 3.19169 3.46372 3.88033H3.66372ZM4.71249 4.9291C4.1343 4.9291 3.66372 4.45851 3.66372 3.88033H3.46372C3.46372 4.56897 4.02385 5.1291 4.71249 5.1291V4.9291ZM5.76125 3.88033C5.76125 4.45852 5.2907 4.9291 4.71249 4.9291V5.1291C5.40116 5.1291 5.96125 4.56897 5.96125 3.88033H5.76125ZM5.46153 3.58061C5.62705 3.58061 5.76125 3.71479 5.76125 3.88033H5.96125C5.96125 3.60432 5.73749 3.38061 5.46153 3.38061V3.58061ZM8.31968 3.38061C8.04371 3.38061 7.81999 3.60432 7.81999 3.8803H8.01999C8.01999 3.71478 8.15416 3.58061 8.31968 3.58061V3.38061ZM8.81941 3.88033C8.81941 3.60432 8.59565 3.38061 8.31968 3.38061V3.58061C8.4852 3.58061 8.61941 3.71479 8.61941 3.88033H8.81941ZM7.57064 5.1291C8.25928 5.1291 8.81941 4.56897 8.81941 3.88033H8.61941C8.61941 4.45851 8.14882 4.9291 7.57064 4.9291V5.1291ZM6.32187 3.88033C6.32187 4.56897 6.882 5.1291 7.57064 5.1291V4.9291C6.99246 4.9291 6.52188 4.45851 6.52188 3.88033H6.32187ZM7.57064 2.63157C6.882 2.63157 6.32187 3.19169 6.32187 3.88033H6.52188C6.52188 3.30215 6.99246 2.83157 7.57064 2.83157V2.63157ZM8.07033 3.13126C8.07033 2.85528 7.84662 2.63157 7.57064 2.63157V2.83157C7.73616 2.83157 7.87033 2.96574 7.87033 3.13126H8.07033ZM7.57064 3.63095C7.84661 3.63095 8.07033 3.40723 8.07033 3.13126H7.87033C7.87033 3.29678 7.73616 3.43095 7.57064 3.43095V3.63095ZM7.32129 3.8803C7.32129 3.74288 7.43324 3.63095 7.57064 3.63095V3.43095C7.3228 3.43095 7.12129 3.63241 7.12129 3.8803H7.32129ZM7.57064 4.12965C7.43321 4.12965 7.32129 4.01773 7.32129 3.8803H7.12129C7.12129 4.12818 7.32276 4.32965 7.57064 4.32965V4.12965ZM7.81999 3.8803C7.81999 4.0177 7.70806 4.12965 7.57064 4.12965V4.32965C7.81853 4.32965 8.01999 4.12814 8.01999 3.8803H7.81999ZM10.8784 3.8803C10.8784 3.71478 11.0126 3.58061 11.1781 3.58061V3.38061C10.9021 3.38061 10.6784 3.60432 10.6784 3.8803H10.8784ZM10.429 4.32965C10.6769 4.32965 10.8784 4.12815 10.8784 3.8803H10.6784C10.6784 4.01769 10.5664 4.12965 10.429 4.12965V4.32965ZM9.97969 3.8803C9.97969 4.12819 10.1812 4.32965 10.429 4.32965V4.12965C10.2916 4.12965 10.1797 4.01772 10.1797 3.8803H9.97969ZM10.429 3.43095C10.1812 3.43095 9.97969 3.63241 9.97969 3.8803H10.1797C10.1797 3.74287 10.2916 3.63095 10.429 3.63095V3.43095ZM10.7287 3.13126C10.7287 3.29678 10.5946 3.43095 10.429 3.43095V3.63095C10.705 3.63095 10.9287 3.40723 10.9287 3.13126H10.7287ZM10.429 2.83157C10.5946 2.83157 10.7287 2.96574 10.7287 3.13126H10.9287C10.9287 2.85528 10.705 2.63157 10.429 2.63157V2.83157ZM9.38027 3.88033C9.38027 3.30215 9.85086 2.83157 10.429 2.83157V2.63157C9.7404 2.63157 9.18027 3.19169 9.18027 3.88033H9.38027ZM10.429 4.9291C9.85086 4.9291 9.38027 4.45851 9.38027 3.88033H9.18027C9.18027 4.56897 9.7404 5.1291 10.429 5.1291V4.9291ZM11.4778 3.88033C11.4778 4.45851 11.0072 4.9291 10.429 4.9291V5.1291C11.1177 5.1291 11.6778 4.56897 11.6778 3.88033H11.4778ZM11.1781 3.58061C11.3436 3.58061 11.4778 3.71478 11.4778 3.88035L11.6778 3.88032C11.6778 3.60433 11.4541 3.38061 11.1781 3.38061V3.58061ZM14.0365 3.38061C13.7605 3.38061 13.5368 3.60432 13.5368 3.8803H13.7368C13.7368 3.71478 13.871 3.58061 14.0365 3.58061V3.38061ZM14.5362 3.88032C14.5362 3.60433 14.3125 3.38061 14.0365 3.38061V3.58061C14.202 3.58061 14.3362 3.71478 14.3362 3.88035L14.5362 3.88032ZM13.2874 5.1291C13.9761 5.1291 14.5362 4.56897 14.5362 3.88033H14.3362C14.3362 4.45851 13.8656 4.9291 13.2874 4.9291V5.1291ZM12.0387 3.88033C12.0387 4.56897 12.5987 5.1291 13.2874 5.1291V4.9291C12.7092 4.9291 12.2387 4.45852 12.2387 3.88033H12.0387ZM13.2874 2.63157C12.5988 2.63157 12.0387 3.1917 12.0387 3.88033H12.2387C12.2387 3.30215 12.7092 2.83157 13.2874 2.83157V2.63157ZM13.7871 3.13126C13.7871 2.85528 13.5634 2.63157 13.2874 2.63157V2.83157C13.453 2.83157 13.5871 2.96574 13.5871 3.13126H13.7871ZM13.2874 3.63095C13.5634 3.63095 13.7871 3.40723 13.7871 3.13126H13.5871C13.5871 3.29678 13.453 3.43095 13.2874 3.43095V3.63095ZM13.0381 3.8803C13.0381 3.74288 13.15 3.63095 13.2874 3.63095V3.43095C13.0396 3.43095 12.8381 3.63241 12.8381 3.8803H13.0381ZM13.2874 4.12965C13.15 4.12965 13.0381 4.01773 13.0381 3.8803H12.8381C12.8381 4.12818 13.0396 4.32965 13.2874 4.32965V4.12965ZM13.5368 3.8803C13.5368 4.0177 13.4249 4.12965 13.2874 4.12965V4.32965C13.5353 4.32965 13.7368 4.12814 13.7368 3.8803H13.5368Z" fill="currentColor" mask="url(#path-1-outside-1_204_542)"/>
		</symbol>
		<symbol id="bath" width="100%" height="100%" viewBox="0 0 18 14">
			<mask id="path-1-outside-1_204_579" maskUnits="userSpaceOnUse" x="0" y="0.0489502" width="20" height="16" fill="black">
				<rect fill="white" y="0.0489502" width="20" height="16"/>
				<path fill-rule="evenodd" clip-rule="evenodd" d="M12.2018 4.74102H17.124C18.1584 4.74102 19 5.58263 19 6.61703C19 7.45551 18.4471 8.16707 17.6868 8.40669L17.1156 11.8343C16.9592 12.7725 16.3801 13.5426 15.5916 13.9645L15.9711 14.344C16.1606 14.5335 16.1606 14.8407 15.9711 15.0302C15.8764 15.1249 15.7522 15.1723 15.6281 15.1723C15.5039 15.1723 15.3798 15.1249 15.285 15.0302L14.5478 14.293C14.4293 14.3072 14.3091 14.3152 14.187 14.3152H5.813C5.6909 14.3152 5.5707 14.3072 5.45226 14.293L4.71503 15.0302C4.62036 15.1249 4.49611 15.1723 4.37198 15.1723C4.24784 15.1723 4.12367 15.1249 4.02892 15.0302C3.83946 14.8407 3.83946 14.5335 4.02892 14.344L4.40843 13.9645C3.61991 13.5426 3.04082 12.7725 2.88445 11.8343L2.31319 8.40669C1.5529 8.167 1 7.45544 1 6.61706C1 5.78949 1.53884 5.08591 2.28394 4.83742C2.25719 4.43499 2.34195 4.02791 2.53411 3.66805C2.76787 3.23036 3.13472 2.89448 3.57734 2.70157C3.57344 2.65717 3.57143 2.61238 3.57143 2.56728C3.57143 1.73123 4.2516 1.05106 5.08762 1.05102C5.43036 1.05102 5.7539 1.16447 6.01507 1.36753C6.66135 0.971253 7.47627 0.937187 8.1697 1.30742C8.76215 1.62379 9.165 2.1898 9.28292 2.83105C9.52919 2.84789 9.77117 2.91662 9.99385 3.03556C10.0449 3.06277 10.0944 3.09244 10.1423 3.12433C10.3784 3.01622 10.6414 2.97087 10.9027 2.9972C11.2943 3.03665 11.6471 3.22625 11.8961 3.53109C12.1451 3.83592 12.2604 4.21951 12.221 4.61108C12.2166 4.65496 12.21 4.69824 12.2018 4.74102ZM4.24844 3.50679C3.87895 3.57011 3.56605 3.79546 3.39003 4.12505C3.28702 4.31795 3.23952 4.5291 3.24895 4.74113H11.1745C11.2192 4.67384 11.2472 4.59632 11.2555 4.51388C11.2689 4.38011 11.2295 4.24919 11.1445 4.14505C11.0595 4.04096 10.939 3.97623 10.8053 3.96273C10.6652 3.9486 10.5293 3.99276 10.4226 4.08694C10.2251 4.26107 9.9248 4.24592 9.74582 4.05287C9.68542 3.98769 9.61504 3.93348 9.53675 3.89165C9.35763 3.79592 9.1508 3.77236 8.95445 3.82531C8.80219 3.86616 8.63952 3.83079 8.51827 3.73003C8.39702 3.62924 8.33219 3.47589 8.34456 3.31874C8.38204 2.84195 8.13398 2.38847 7.71256 2.16344C7.24544 1.91386 6.67868 1.99606 6.3023 2.36745C6.19746 2.47084 6.0515 2.52126 5.90504 2.50392C5.75875 2.4868 5.62821 2.40412 5.55013 2.27924C5.44923 2.11777 5.2763 2.02137 5.08762 2.02137C4.78664 2.02137 4.54178 2.26623 4.54178 2.56724C4.54178 2.65176 4.5614 2.73371 4.60011 2.81091C4.66905 2.94826 4.66884 3.11023 4.59951 3.24737C4.53018 3.38459 4.39996 3.48085 4.24844 3.50679ZM14.187 13.3448C15.168 13.3448 15.9971 12.6425 16.1585 11.6748L16.6887 8.49304H3.31128L3.4378 9.2522H9.89291C10.1609 9.2522 10.3781 9.46947 10.3781 9.73739C10.3781 10.0053 10.1609 10.2226 9.89291 10.2226H3.59952L3.84154 11.6748C4.00287 12.6425 4.83196 13.3448 5.813 13.3448H14.187ZM2.87604 7.52269H17.124C17.6234 7.52269 18.0297 7.11646 18.0297 6.61703C18.0297 6.11767 17.6234 5.71137 17.124 5.71137H11.3829H2.879L2.87214 5.71158C2.37457 5.71373 1.97038 6.11901 1.97038 6.61703C1.97038 7.11639 2.37665 7.52269 2.87604 7.52269ZM11.6098 9.33418C11.6365 9.35165 11.6612 9.37201 11.6836 9.39433C11.7738 9.48458 11.8257 9.60973 11.8257 9.73735C11.8257 9.86497 11.7738 9.99016 11.6836 10.0803C11.6612 10.1032 11.6365 10.1231 11.6098 10.141C11.5836 10.1585 11.5555 10.1735 11.5263 10.1857C11.4967 10.1978 11.4662 10.207 11.4351 10.2133C11.4041 10.2191 11.372 10.2225 11.3405 10.2225C11.309 10.2225 11.2769 10.2191 11.2459 10.2133C11.2148 10.207 11.1843 10.1978 11.1552 10.1857C11.1256 10.1735 11.0974 10.1585 11.0712 10.141C11.0445 10.1231 11.0198 10.1032 10.9975 10.0803C10.9072 9.99013 10.8553 9.86497 10.8553 9.73735C10.8553 9.60973 10.9072 9.48458 10.9975 9.39433C11.0198 9.37201 11.0445 9.35165 11.0712 9.33418C11.0974 9.31674 11.1256 9.30166 11.1552 9.28953C11.1843 9.2774 11.2149 9.26823 11.2459 9.26193C11.3085 9.24928 11.373 9.24928 11.4356 9.26193C11.4662 9.26823 11.4967 9.2774 11.5263 9.28953C11.5555 9.30166 11.5836 9.31678 11.6098 9.33418Z"/>
				</mask>
				<path fill-rule="evenodd" clip-rule="evenodd" d="M12.2018 4.74102H17.124C18.1584 4.74102 19 5.58263 19 6.61703C19 7.45551 18.4471 8.16707 17.6868 8.40669L17.1156 11.8343C16.9592 12.7725 16.3801 13.5426 15.5916 13.9645L15.9711 14.344C16.1606 14.5335 16.1606 14.8407 15.9711 15.0302C15.8764 15.1249 15.7522 15.1723 15.6281 15.1723C15.5039 15.1723 15.3798 15.1249 15.285 15.0302L14.5478 14.293C14.4293 14.3072 14.3091 14.3152 14.187 14.3152H5.813C5.6909 14.3152 5.5707 14.3072 5.45226 14.293L4.71503 15.0302C4.62036 15.1249 4.49611 15.1723 4.37198 15.1723C4.24784 15.1723 4.12367 15.1249 4.02892 15.0302C3.83946 14.8407 3.83946 14.5335 4.02892 14.344L4.40843 13.9645C3.61991 13.5426 3.04082 12.7725 2.88445 11.8343L2.31319 8.40669C1.5529 8.167 1 7.45544 1 6.61706C1 5.78949 1.53884 5.08591 2.28394 4.83742C2.25719 4.43499 2.34195 4.02791 2.53411 3.66805C2.76787 3.23036 3.13472 2.89448 3.57734 2.70157C3.57344 2.65717 3.57143 2.61238 3.57143 2.56728C3.57143 1.73123 4.2516 1.05106 5.08762 1.05102C5.43036 1.05102 5.7539 1.16447 6.01507 1.36753C6.66135 0.971253 7.47627 0.937187 8.1697 1.30742C8.76215 1.62379 9.165 2.1898 9.28292 2.83105C9.52919 2.84789 9.77117 2.91662 9.99385 3.03556C10.0449 3.06277 10.0944 3.09244 10.1423 3.12433C10.3784 3.01622 10.6414 2.97087 10.9027 2.9972C11.2943 3.03665 11.6471 3.22625 11.8961 3.53109C12.1451 3.83592 12.2604 4.21951 12.221 4.61108C12.2166 4.65496 12.21 4.69824 12.2018 4.74102ZM4.24844 3.50679C3.87895 3.57011 3.56605 3.79546 3.39003 4.12505C3.28702 4.31795 3.23952 4.5291 3.24895 4.74113H11.1745C11.2192 4.67384 11.2472 4.59632 11.2555 4.51388C11.2689 4.38011 11.2295 4.24919 11.1445 4.14505C11.0595 4.04096 10.939 3.97623 10.8053 3.96273C10.6652 3.9486 10.5293 3.99276 10.4226 4.08694C10.2251 4.26107 9.9248 4.24592 9.74582 4.05287C9.68542 3.98769 9.61504 3.93348 9.53675 3.89165C9.35763 3.79592 9.1508 3.77236 8.95445 3.82531C8.80219 3.86616 8.63952 3.83079 8.51827 3.73003C8.39702 3.62924 8.33219 3.47589 8.34456 3.31874C8.38204 2.84195 8.13398 2.38847 7.71256 2.16344C7.24544 1.91386 6.67868 1.99606 6.3023 2.36745C6.19746 2.47084 6.0515 2.52126 5.90504 2.50392C5.75875 2.4868 5.62821 2.40412 5.55013 2.27924C5.44923 2.11777 5.2763 2.02137 5.08762 2.02137C4.78664 2.02137 4.54178 2.26623 4.54178 2.56724C4.54178 2.65176 4.5614 2.73371 4.60011 2.81091C4.66905 2.94826 4.66884 3.11023 4.59951 3.24737C4.53018 3.38459 4.39996 3.48085 4.24844 3.50679ZM14.187 13.3448C15.168 13.3448 15.9971 12.6425 16.1585 11.6748L16.6887 8.49304H3.31128L3.4378 9.2522H9.89291C10.1609 9.2522 10.3781 9.46947 10.3781 9.73739C10.3781 10.0053 10.1609 10.2226 9.89291 10.2226H3.59952L3.84154 11.6748C4.00287 12.6425 4.83196 13.3448 5.813 13.3448H14.187ZM2.87604 7.52269H17.124C17.6234 7.52269 18.0297 7.11646 18.0297 6.61703C18.0297 6.11767 17.6234 5.71137 17.124 5.71137H11.3829H2.879L2.87214 5.71158C2.37457 5.71373 1.97038 6.11901 1.97038 6.61703C1.97038 7.11639 2.37665 7.52269 2.87604 7.52269ZM11.6098 9.33418C11.6365 9.35165 11.6612 9.37201 11.6836 9.39433C11.7738 9.48458 11.8257 9.60973 11.8257 9.73735C11.8257 9.86497 11.7738 9.99016 11.6836 10.0803C11.6612 10.1032 11.6365 10.1231 11.6098 10.141C11.5836 10.1585 11.5555 10.1735 11.5263 10.1857C11.4967 10.1978 11.4662 10.207 11.4351 10.2133C11.4041 10.2191 11.372 10.2225 11.3405 10.2225C11.309 10.2225 11.2769 10.2191 11.2459 10.2133C11.2148 10.207 11.1843 10.1978 11.1552 10.1857C11.1256 10.1735 11.0974 10.1585 11.0712 10.141C11.0445 10.1231 11.0198 10.1032 10.9975 10.0803C10.9072 9.99013 10.8553 9.86497 10.8553 9.73735C10.8553 9.60973 10.9072 9.48458 10.9975 9.39433C11.0198 9.37201 11.0445 9.35165 11.0712 9.33418C11.0974 9.31674 11.1256 9.30166 11.1552 9.28953C11.1843 9.2774 11.2149 9.26823 11.2459 9.26193C11.3085 9.24928 11.373 9.24928 11.4356 9.26193C11.4662 9.26823 11.4967 9.2774 11.5263 9.28953C11.5555 9.30166 11.5836 9.31678 11.6098 9.33418Z" fill="currentColor"/>
				<path d="M12.2018 4.74102L12.1036 4.7223L12.081 4.84102H12.2018V4.74102ZM17.6868 8.40669L17.6568 8.31132L17.5983 8.32976L17.5882 8.39025L17.6868 8.40669ZM17.1156 11.8343L17.2142 11.8507L17.2142 11.8507L17.1156 11.8343ZM15.5916 13.9645L15.5444 13.8763L15.4256 13.9399L15.5209 14.0352L15.5916 13.9645ZM15.9711 14.344L15.9004 14.4147L15.9004 14.4147L15.9711 14.344ZM15.285 15.0302L15.2143 15.1009L15.2143 15.1009L15.285 15.0302ZM14.5478 14.293L14.6185 14.2223L14.5841 14.1879L14.5358 14.1937L14.5478 14.293ZM5.45226 14.293L5.46416 14.1937L5.41591 14.1879L5.38155 14.2223L5.45226 14.293ZM4.71503 15.0302L4.64432 14.9595L4.64431 14.9595L4.71503 15.0302ZM4.02892 15.0302L3.9582 15.1009L3.95822 15.1009L4.02892 15.0302ZM4.02892 14.344L4.09963 14.4147L4.09963 14.4147L4.02892 14.344ZM4.40843 13.9645L4.47914 14.0352L4.57444 13.9399L4.45561 13.8763L4.40843 13.9645ZM2.88445 11.8343L2.78581 11.8507L2.78581 11.8507L2.88445 11.8343ZM2.31319 8.40669L2.41183 8.39025L2.40175 8.32976L2.34326 8.31132L2.31319 8.40669ZM2.28394 4.83742L2.31558 4.93228L2.38884 4.90785L2.38372 4.83079L2.28394 4.83742ZM2.53411 3.66805L2.4459 3.62095L2.4459 3.62095L2.53411 3.66805ZM3.57734 2.70157L3.61729 2.79325L3.68326 2.7645L3.67696 2.69282L3.57734 2.70157ZM5.08762 1.05102L5.08762 0.951023L5.08761 0.951023L5.08762 1.05102ZM6.01507 1.36753L5.95369 1.44648L6.00834 1.48897L6.06735 1.45278L6.01507 1.36753ZM8.1697 1.30742L8.2168 1.21921L8.21679 1.2192L8.1697 1.30742ZM9.28292 2.83105L9.18457 2.84914L9.19861 2.92552L9.2761 2.93082L9.28292 2.83105ZM9.99385 3.03556L9.94674 3.12376L9.94681 3.1238L9.99385 3.03556ZM10.1423 3.12433L10.0868 3.20754L10.1332 3.23846L10.1839 3.21525L10.1423 3.12433ZM10.9027 2.9972L10.8927 3.0967L10.8927 3.0967L10.9027 2.9972ZM11.8961 3.53109L11.9735 3.46783L11.9735 3.46783L11.8961 3.53109ZM12.221 4.61108L12.1215 4.60106L12.1215 4.60112L12.221 4.61108ZM3.39003 4.12505L3.30182 4.07794L3.30182 4.07795L3.39003 4.12505ZM4.24844 3.50679L4.23156 3.40823L4.23155 3.40823L4.24844 3.50679ZM3.24895 4.74113L3.14904 4.74557L3.15329 4.84113H3.24895V4.74113ZM11.1745 4.74113V4.84113H11.2282L11.2578 4.79645L11.1745 4.74113ZM11.2555 4.51388L11.355 4.52389L11.355 4.52387L11.2555 4.51388ZM11.1445 4.14505L11.222 4.08182L11.222 4.0818L11.1445 4.14505ZM10.8053 3.96273L10.8154 3.86324L10.8154 3.86324L10.8053 3.96273ZM10.4226 4.08694L10.4887 4.16195L10.4887 4.16193L10.4226 4.08694ZM9.74582 4.05287L9.67247 4.12084L9.67249 4.12086L9.74582 4.05287ZM9.53675 3.89165L9.48961 3.97984L9.48962 3.97985L9.53675 3.89165ZM8.95445 3.82531L8.98037 3.92189L8.98049 3.92186L8.95445 3.82531ZM8.51827 3.73003L8.45435 3.80694L8.45436 3.80695L8.51827 3.73003ZM8.34456 3.31874L8.44425 3.32659L8.44426 3.32658L8.34456 3.31874ZM7.71256 2.16344L7.66543 2.25164L7.66545 2.25165L7.71256 2.16344ZM6.3023 2.36745L6.37252 2.43865L6.37254 2.43863L6.3023 2.36745ZM5.90504 2.50392L5.91679 2.40462L5.91666 2.4046L5.90504 2.50392ZM5.55013 2.27924L5.46533 2.33223L5.46534 2.33226L5.55013 2.27924ZM4.60011 2.81091L4.51071 2.85573L4.51073 2.85577L4.60011 2.81091ZM4.59951 3.24737L4.51026 3.20226L4.51025 3.20228L4.59951 3.24737ZM16.1585 11.6748L16.2571 11.6913L16.2571 11.6913L16.1585 11.6748ZM16.6887 8.49304L16.7874 8.50948L16.8068 8.39304H16.6887V8.49304ZM3.31128 8.49304V8.39304H3.19323L3.21264 8.50948L3.31128 8.49304ZM3.4378 9.2522L3.33917 9.26864L3.35309 9.3522H3.4378V9.2522ZM3.59952 10.2226V10.1226H3.48148L3.50088 10.239L3.59952 10.2226ZM3.84154 11.6748L3.7429 11.6913L3.7429 11.6913L3.84154 11.6748ZM18.0297 6.61703L18.1297 6.61704V6.61703H18.0297ZM2.879 5.71137V5.61132L2.87592 5.61142L2.879 5.71137ZM2.87214 5.71158L2.87257 5.81161L2.87522 5.81153L2.87214 5.71158ZM11.6836 9.39433L11.7543 9.32362L11.7543 9.32362L11.6836 9.39433ZM11.6098 9.33418L11.5545 9.41747L11.555 9.41784L11.6098 9.33418ZM11.8257 9.73735L11.9257 9.73735L11.9257 9.73732L11.8257 9.73735ZM11.6836 10.0803L11.6129 10.0096L11.612 10.0105L11.6836 10.0803ZM11.6098 10.141L11.6653 10.2242L11.6655 10.224L11.6098 10.141ZM11.5263 10.1857L11.5643 10.2782L11.5648 10.278L11.5263 10.1857ZM11.4351 10.2133L11.4535 10.3116L11.455 10.3113L11.4351 10.2133ZM11.2459 10.2133L11.2261 10.3113L11.2274 10.3115L11.2459 10.2133ZM11.1552 10.1857L11.1936 10.0934L11.1931 10.0931L11.1552 10.1857ZM11.0712 10.141L11.0155 10.224L11.0157 10.2242L11.0712 10.141ZM10.9975 10.0803L11.069 10.0105L11.0682 10.0096L10.9975 10.0803ZM10.9975 9.39433L10.9267 9.32362L10.9267 9.32362L10.9975 9.39433ZM11.0712 9.33418L11.126 9.41784L11.1266 9.41745L11.0712 9.33418ZM11.1552 9.28953L11.1931 9.38207L11.1936 9.38184L11.1552 9.28953ZM11.2459 9.26193L11.2261 9.16392L11.226 9.16393L11.2459 9.26193ZM11.4356 9.26193L11.4558 9.16399L11.4554 9.16392L11.4356 9.26193ZM11.5263 9.28953L11.5648 9.19722L11.5643 9.197L11.5263 9.28953ZM17.124 4.64102H12.2018V4.84102H17.124V4.64102ZM19.1 6.61703C19.1 5.5274 18.2137 4.64102 17.124 4.64102V4.84102C18.1032 4.84102 18.9 5.63786 18.9 6.61703H19.1ZM17.7169 8.50207C18.5175 8.24973 19.1 7.50051 19.1 6.61703H18.9C18.9 7.4105 18.3767 8.0844 17.6568 8.31132L17.7169 8.50207ZM17.2142 11.8507L17.7855 8.42313L17.5882 8.39025L17.0169 11.8178L17.2142 11.8507ZM15.6388 14.0527C16.454 13.6165 17.0526 12.8203 17.2142 11.8507L17.0169 11.8178C16.8658 12.7247 16.3063 13.4687 15.5444 13.8763L15.6388 14.0527ZM16.0418 14.2733L15.6623 13.8938L15.5209 14.0352L15.9004 14.4147L16.0418 14.2733ZM16.0418 15.1009C16.2703 14.8724 16.2704 14.5019 16.0418 14.2733L15.9004 14.4147C16.0509 14.5652 16.0508 14.8091 15.9004 14.9595L16.0418 15.1009ZM15.6281 15.2723C15.7777 15.2723 15.9276 15.2151 16.0418 15.1009L15.9004 14.9595C15.8252 15.0347 15.7268 15.0723 15.6281 15.0723V15.2723ZM15.2143 15.1009C15.3285 15.2151 15.4785 15.2723 15.6281 15.2723V15.0723C15.5294 15.0723 15.431 15.0347 15.3557 14.9595L15.2143 15.1009ZM14.4771 14.3637L15.2143 15.1009L15.3557 14.9595L14.6185 14.2223L14.4771 14.3637ZM14.187 14.4152C14.3134 14.4152 14.4377 14.4069 14.5597 14.3923L14.5358 14.1937C14.421 14.2075 14.3047 14.2152 14.187 14.2152V14.4152ZM5.813 14.4152H14.187V14.2152H5.813V14.4152ZM5.44035 14.3923C5.56234 14.4069 5.68653 14.4152 5.813 14.4152V14.2152C5.69526 14.2152 5.57906 14.2075 5.46416 14.1937L5.44035 14.3923ZM4.78574 15.1009L5.52297 14.3637L5.38155 14.2223L4.64432 14.9595L4.78574 15.1009ZM4.37198 15.2723C4.52154 15.2723 4.67156 15.2151 4.78575 15.1009L4.64431 14.9595C4.56915 15.0347 4.47068 15.0723 4.37198 15.0723V15.2723ZM3.95822 15.1009C4.07246 15.2151 4.22239 15.2723 4.37198 15.2723V15.0723C4.27329 15.0723 4.17487 15.0347 4.09962 14.9595L3.95822 15.1009ZM3.95821 14.2733C3.7297 14.5018 3.72971 14.8724 3.9582 15.1009L4.09964 14.9595C3.94922 14.8091 3.94923 14.5651 4.09963 14.4147L3.95821 14.2733ZM4.33772 13.8938L3.95821 14.2733L4.09963 14.4147L4.47914 14.0352L4.33772 13.8938ZM2.78581 11.8507C2.9474 12.8203 3.54605 13.6165 4.36126 14.0527L4.45561 13.8763C3.69378 13.4687 3.13424 12.7247 2.98308 11.8178L2.78581 11.8507ZM2.21455 8.42313L2.78581 11.8507L2.98308 11.8178L2.41183 8.39025L2.21455 8.42313ZM0.9 6.61706C0.9 7.50045 1.48252 8.24966 2.28312 8.50207L2.34326 8.31132C1.62328 8.08433 1.1 7.41043 1.1 6.61706H0.9ZM2.25231 4.74256C1.46775 5.0042 0.9 5.74502 0.9 6.61706H1.1C1.1 5.83395 1.60993 5.16761 2.31558 4.93228L2.25231 4.74256ZM2.4459 3.62095C2.24476 3.99762 2.15619 4.42335 2.18416 4.84405L2.38372 4.83079C2.35818 4.44662 2.43914 4.05821 2.62232 3.71516L2.4459 3.62095ZM3.53739 2.6099C3.07412 2.8118 2.69026 3.16339 2.4459 3.62095L2.62232 3.71516C2.84547 3.29732 3.19533 2.97715 3.61729 2.79325L3.53739 2.6099ZM3.47143 2.56728C3.47143 2.61535 3.47357 2.66306 3.47772 2.71033L3.67696 2.69282C3.67331 2.65129 3.67143 2.60942 3.67143 2.56728H3.47143ZM5.08761 0.951023C4.19637 0.95106 3.47143 1.676 3.47143 2.56728H3.67143C3.67143 1.78645 4.30683 1.15106 5.08762 1.15102L5.08761 0.951023ZM6.07645 1.28859C5.7978 1.07193 5.45267 0.951023 5.08762 0.951023V1.15102C5.40804 1.15102 5.71 1.25701 5.95369 1.44648L6.07645 1.28859ZM8.21679 1.2192C7.49181 0.832123 6.63908 0.867606 5.9628 1.28228L6.06735 1.45278C6.68362 1.0749 7.46073 1.04225 8.1226 1.39563L8.21679 1.2192ZM9.38127 2.81297C9.25794 2.14226 8.83657 1.55017 8.2168 1.21921L8.12259 1.39563C8.68772 1.69741 9.07207 2.23735 9.18457 2.84914L9.38127 2.81297ZM10.041 2.94735C9.8058 2.82175 9.55008 2.74909 9.28974 2.73129L9.2761 2.93082C9.50829 2.9467 9.73654 3.0115 9.94674 3.12376L10.041 2.94735ZM10.1977 3.04111C10.1472 3.00744 10.0949 2.97609 10.0409 2.94731L9.94681 3.1238C9.99492 3.14945 10.0417 3.17744 10.0868 3.20754L10.1977 3.04111ZM10.9128 2.89771C10.6334 2.86956 10.3526 2.91805 10.1006 3.03341L10.1839 3.21525C10.4041 3.1144 10.6494 3.07218 10.8927 3.0967L10.9128 2.89771ZM11.9735 3.46783C11.7078 3.14244 11.3307 2.93981 10.9128 2.89771L10.8927 3.0967C11.2579 3.13349 11.5864 3.31005 11.8186 3.59434L11.9735 3.46783ZM12.3205 4.62111C12.3626 4.20316 12.2393 3.79321 11.9735 3.46783L11.8186 3.59434C12.0508 3.87864 12.1583 4.23587 12.1215 4.60106L12.3205 4.62111ZM12.3001 4.75975C12.3087 4.71455 12.3158 4.66832 12.3205 4.62105L12.1215 4.60112C12.1174 4.6416 12.1113 4.68192 12.1036 4.7223L12.3001 4.75975ZM3.47824 4.17216C3.63966 3.86992 3.92616 3.66348 4.26533 3.60536L4.23155 3.40823C3.83173 3.47674 3.49245 3.721 3.30182 4.07794L3.47824 4.17216ZM3.34885 4.73669C3.34023 4.54273 3.38361 4.34937 3.47824 4.17215L3.30182 4.07795C3.19043 4.28654 3.13882 4.51547 3.14904 4.74557L3.34885 4.73669ZM11.1745 4.64113H3.24895V4.84113H11.1745V4.64113ZM11.156 4.50386C11.1493 4.57013 11.1269 4.63209 11.0912 4.68581L11.2578 4.79645C11.3115 4.71558 11.345 4.62251 11.355 4.52389L11.156 4.50386ZM11.067 4.20829C11.1353 4.29189 11.1667 4.39647 11.156 4.50389L11.355 4.52387C11.371 4.36375 11.3237 4.20648 11.222 4.08182L11.067 4.20829ZM10.7953 4.06223C10.9026 4.07307 10.9988 4.12477 11.0671 4.2083L11.222 4.0818C11.1202 3.95714 10.9754 3.8794 10.8154 3.86324L10.7953 4.06223ZM10.4887 4.16193C10.5749 4.0859 10.6833 4.05093 10.7953 4.06223L10.8154 3.86324C10.6472 3.84627 10.4838 3.89961 10.3564 4.01195L10.4887 4.16193ZM9.67249 4.12086C9.88835 4.35369 10.2505 4.37196 10.4887 4.16195L10.3564 4.01193C10.1996 4.15018 9.96125 4.13815 9.81915 3.98489L9.67249 4.12086ZM9.48962 3.97985C9.55815 4.01647 9.61966 4.06385 9.67247 4.12084L9.81917 3.98491C9.75118 3.91154 9.67193 3.8505 9.58387 3.80345L9.48962 3.97985ZM8.98049 3.92186C9.15231 3.87553 9.33297 3.89612 9.48961 3.97984L9.58388 3.80345C9.38228 3.69571 9.14929 3.6692 8.92842 3.72876L8.98049 3.92186ZM8.45436 3.80695C8.60068 3.92853 8.79686 3.97113 8.98037 3.92189L8.92854 3.72872C8.80752 3.76119 8.67837 3.73305 8.58218 3.65312L8.45436 3.80695ZM8.24487 3.31089C8.22994 3.50048 8.30815 3.68541 8.45435 3.80694L8.58219 3.65313C8.48588 3.57307 8.43443 3.4513 8.44425 3.32659L8.24487 3.31089ZM7.66545 2.25165C8.05176 2.45793 8.27924 2.87368 8.24487 3.31091L8.44426 3.32658C8.48484 2.81023 8.21619 2.31901 7.75966 2.07523L7.66545 2.25165ZM6.37254 2.43863C6.71772 2.09803 7.2369 2.02268 7.66543 2.25164L7.75968 2.07524C7.25397 1.80504 6.63965 1.89409 6.23206 2.29627L6.37254 2.43863ZM5.89328 2.60323C6.07007 2.62415 6.24616 2.56327 6.37252 2.43865L6.23208 2.29625C6.14877 2.37841 6.03293 2.41836 5.91679 2.40462L5.89328 2.60323ZM5.46534 2.33226C5.5595 2.48285 5.71694 2.58259 5.89341 2.60325L5.91666 2.4046C5.80056 2.39101 5.69693 2.32539 5.63492 2.22622L5.46534 2.33226ZM5.08762 2.12137C5.24145 2.12137 5.3825 2.19969 5.46533 2.33223L5.63494 2.22625C5.51596 2.03585 5.31115 1.92137 5.08762 1.92137V2.12137ZM4.64178 2.56724C4.64178 2.32146 4.84188 2.12137 5.08762 2.12137V1.92137C4.73141 1.92137 4.44178 2.21101 4.44178 2.56724H4.64178ZM4.6895 2.76609C4.65761 2.70248 4.64178 2.63584 4.64178 2.56724H4.44178C4.44178 2.66767 4.46519 2.76493 4.51071 2.85573L4.6895 2.76609ZM4.68875 3.29249C4.77238 3.12706 4.77263 2.93171 4.68948 2.76605L4.51073 2.85577C4.56547 2.96482 4.56529 3.0934 4.51026 3.20226L4.68875 3.29249ZM4.26531 3.60536C4.4481 3.57406 4.60515 3.45795 4.68876 3.29247L4.51025 3.20228C4.45521 3.31123 4.35183 3.38763 4.23156 3.40823L4.26531 3.60536ZM16.0598 11.6584C15.9065 12.5778 15.1192 13.2448 14.187 13.2448V13.4448C15.2169 13.4448 16.0877 12.7071 16.2571 11.6913L16.0598 11.6584ZM16.5901 8.4766L16.0598 11.6584L16.2571 11.6913L16.7874 8.50948L16.5901 8.4766ZM3.31128 8.59304H16.6887V8.39304H3.31128V8.59304ZM3.53644 9.23576L3.40992 8.4766L3.21264 8.50948L3.33917 9.26864L3.53644 9.23576ZM9.89291 9.1522H3.4378V9.3522H9.89291V9.1522ZM10.4781 9.73739C10.4781 9.41424 10.2161 9.1522 9.89291 9.1522V9.3522C10.1056 9.3522 10.2781 9.52469 10.2781 9.73739H10.4781ZM9.89291 10.3226C10.2161 10.3226 10.4781 10.0605 10.4781 9.73739H10.2781C10.2781 9.95009 10.1056 10.1226 9.89291 10.1226V10.3226ZM3.59952 10.3226H9.89291V10.1226H3.59952V10.3226ZM3.94018 11.6584L3.69816 10.2061L3.50088 10.239L3.7429 11.6913L3.94018 11.6584ZM5.813 13.2448C4.88085 13.2448 4.09347 12.5778 3.94018 11.6584L3.7429 11.6913C3.91227 12.7071 4.78307 13.4448 5.813 13.4448V13.2448ZM14.187 13.2448H5.813V13.4448H14.187V13.2448ZM17.124 7.42269H2.87604V7.62269H17.124V7.42269ZM17.9297 6.61702C17.9297 7.06122 17.5681 7.42269 17.124 7.42269V7.62269C17.6786 7.62269 18.1296 7.1717 18.1297 6.61704L17.9297 6.61702ZM17.124 5.81137C17.5682 5.81137 17.9297 6.1729 17.9297 6.61703H18.1297C18.1297 6.06244 17.6787 5.61137 17.124 5.61137V5.81137ZM11.3829 5.81137H17.124V5.61137H11.3829V5.81137ZM2.879 5.81137H11.3829V5.61137H2.879V5.81137ZM2.87522 5.81153L2.88208 5.81132L2.87592 5.61142L2.86906 5.61163L2.87522 5.81153ZM2.07038 6.61703C2.07038 6.17413 2.43 5.81349 2.87257 5.81158L2.87171 5.61158C2.31915 5.61396 1.87038 6.06388 1.87038 6.61703H2.07038ZM2.87604 7.42269C2.43188 7.42269 2.07038 7.06116 2.07038 6.61703H1.87038C1.87038 7.17161 2.32142 7.62269 2.87604 7.62269V7.42269ZM11.7543 9.32362C11.7274 9.2967 11.6973 9.27194 11.6646 9.25052L11.555 9.41784C11.5757 9.43136 11.5951 9.44732 11.6129 9.46505L11.7543 9.32362ZM11.9257 9.73732C11.9257 9.58318 11.8633 9.4326 11.7543 9.32362L11.6129 9.46504C11.6844 9.53655 11.7257 9.63629 11.7257 9.73738L11.9257 9.73732ZM11.7543 10.1511C11.8633 10.0422 11.9257 9.89152 11.9257 9.73735H11.7257C11.7257 9.83842 11.6844 9.93817 11.6129 10.0096L11.7543 10.1511ZM11.6655 10.224C11.6969 10.203 11.7272 10.1788 11.7551 10.1502L11.612 10.0105C11.5953 10.0276 11.5761 10.0432 11.5541 10.0579L11.6655 10.224ZM11.5648 10.278C11.5999 10.2633 11.6337 10.2452 11.6653 10.2242L11.5544 10.0578C11.5334 10.0717 11.511 10.0837 11.4879 10.0934L11.5648 10.278ZM11.455 10.3113C11.492 10.3038 11.5287 10.2928 11.5643 10.2782L11.4884 10.0931C11.4648 10.1028 11.4403 10.1102 11.4153 10.1153L11.455 10.3113ZM11.3405 10.3225C11.3791 10.3225 11.4173 10.3183 11.4535 10.3116L11.4167 10.115C11.3908 10.1198 11.365 10.1225 11.3405 10.1225V10.3225ZM11.2274 10.3115C11.2637 10.3184 11.302 10.3225 11.3405 10.3225V10.1225C11.316 10.1225 11.2902 10.1198 11.2644 10.115L11.2274 10.3115ZM11.1167 10.278C11.1522 10.2928 11.189 10.3038 11.2261 10.3113L11.2658 10.1153C11.2407 10.1102 11.2164 10.1028 11.1936 10.0934L11.1167 10.278ZM11.0157 10.2242C11.0473 10.2452 11.0813 10.2635 11.1173 10.2782L11.1931 10.0931C11.1698 10.0836 11.1475 10.0717 11.1267 10.0578L11.0157 10.2242ZM10.9259 10.1502C10.9538 10.1788 10.9841 10.203 11.0155 10.224L11.1269 10.0579C11.105 10.0432 11.0857 10.0276 11.069 10.0105L10.9259 10.1502ZM10.7553 9.73735C10.7553 9.89153 10.8178 10.0421 10.9268 10.1511L11.0682 10.0096C10.9966 9.93813 10.9553 9.83841 10.9553 9.73735H10.7553ZM10.9267 9.32362C10.8178 9.43259 10.7553 9.58317 10.7553 9.73735H10.9553C10.9553 9.6363 10.9966 9.53657 11.0682 9.46504L10.9267 9.32362ZM11.0164 9.25052C10.9837 9.27194 10.9537 9.2967 10.9267 9.32362L11.0682 9.46505C11.0859 9.44732 11.1053 9.43136 11.126 9.41784L11.0164 9.25052ZM11.1173 9.197C11.0813 9.21172 11.0474 9.22995 11.0158 9.25091L11.1266 9.41745C11.1475 9.40353 11.1698 9.3916 11.1931 9.38207L11.1173 9.197ZM11.226 9.16393C11.189 9.17143 11.1522 9.18244 11.1167 9.19722L11.1936 9.38184C11.2164 9.37237 11.2407 9.36503 11.2658 9.35994L11.226 9.16393ZM11.4554 9.16392C11.3798 9.14862 11.3017 9.14862 11.2261 9.16392L11.2657 9.35995C11.3152 9.34994 11.3663 9.34994 11.4158 9.35995L11.4554 9.16392ZM11.5643 9.197C11.5287 9.18244 11.4922 9.17149 11.4558 9.16399L11.4155 9.35988C11.4402 9.36497 11.4648 9.37236 11.4884 9.38207L11.5643 9.197ZM11.6652 9.25089C11.6337 9.23002 11.5999 9.21186 11.5648 9.19722L11.4879 9.38184C11.511 9.39146 11.5335 9.40354 11.5545 9.41747L11.6652 9.25089Z" fill="currentColor" mask="url(#path-1-outside-1_204_579)"/>
				
		</symbol>
		<!--  -->
		<!--  -->
		<!--  -->
	</defs>
</svg>