<svg width="24" height="24" viewBox="0 0 24 24" fill="none" xmlns="http://www.w3.org/2000/svg">
<g clip-path="url(#clip0_54_78)">
<path d="M12 14C13.6569 14 15 12.6569 15 11C15 9.34315 13.6569 8 12 8C10.3431 8 9 9.34315 9 11C9 12.6569 10.3431 14 12 14Z" stroke="#0A0A0A" stroke-width="2"/>
<path d="M12 14C13.6569 14 15 12.6569 15 11C15 9.34315 13.6569 8 12 8C10.3431 8 9 9.34315 9 11C9 12.6569 10.3431 14 12 14Z" stroke="url(#paint0_linear_54_78)" stroke-opacity="0.2" stroke-width="2"/>
<path d="M17.657 16.6572L13.414 20.9002C13.039 21.2748 12.5306 21.4853 12.0005 21.4853C11.4704 21.4853 10.962 21.2748 10.587 20.9002L6.343 16.6572C5.22422 15.5384 4.46234 14.1129 4.15369 12.5611C3.84504 11.0092 4.00349 9.40071 4.60901 7.93893C5.21452 6.47714 6.2399 5.22774 7.55548 4.3487C8.87107 3.46967 10.4178 3.00049 12 3.00049C13.5822 3.00049 15.1289 3.46967 16.4445 4.3487C17.7601 5.22774 18.7855 6.47714 19.391 7.93893C19.9965 9.40071 20.155 11.0092 19.8463 12.5611C19.5377 14.1129 18.7758 15.5384 17.657 16.6572V16.6572Z" stroke="#0A0A0A" stroke-width="2"/>
<path d="M17.657 16.6572L13.414 20.9002C13.039 21.2748 12.5306 21.4853 12.0005 21.4853C11.4704 21.4853 10.962 21.2748 10.587 20.9002L6.343 16.6572C5.22422 15.5384 4.46234 14.1129 4.15369 12.5611C3.84504 11.0092 4.00349 9.40071 4.60901 7.93893C5.21452 6.47714 6.2399 5.22774 7.55548 4.3487C8.87107 3.46967 10.4178 3.00049 12 3.00049C13.5822 3.00049 15.1289 3.46967 16.4445 4.3487C17.7601 5.22774 18.7855 6.47714 19.391 7.93893C19.9965 9.40071 20.155 11.0092 19.8463 12.5611C19.5377 14.1129 18.7758 15.5384 17.657 16.6572V16.6572Z" stroke="url(#paint1_linear_54_78)" stroke-opacity="0.2" stroke-width="2"/>
</g>
<defs>
<linearGradient id="paint0_linear_54_78" x1="15" y1="13.8425" x2="9.94515" y2="7.27264" gradientUnits="userSpaceOnUse">
<stop stop-color="#4FFF80"/>
<stop offset="0.638421" stop-color="#4FFF80" stop-opacity="0"/>
</linearGradient>
<linearGradient id="paint1_linear_54_78" x1="20" y1="21" x2="4" y2="3" gradientUnits="userSpaceOnUse">
<stop stop-color="#4FFF80"/>
<stop offset="0.638421" stop-color="#4FFF80" stop-opacity="0"/>
</linearGradient>
<clipPath id="clip0_54_78">
<rect width="24" height="24" fill="white"/>
</clipPath>
</defs>
</svg>
