<svg width="24" height="24" viewBox="0 0 24 24" fill="none" xmlns="http://www.w3.org/2000/svg">
<g clip-path="url(#clip0_12_584)">
<path d="M5 4H9L11 9L8.5 10.5C9.57096 12.6715 11.3285 14.429 13.5 15.5L15 13L20 15V19C20 19.5304 19.7893 20.0391 19.4142 20.4142C19.0391 20.7893 18.5304 21 18 21C14.0993 20.763 10.4202 19.1065 7.65683 16.3432C4.8935 13.5798 3.23705 9.90074 3 6C3 5.46957 3.21071 4.96086 3.58579 4.58579C3.96086 4.21071 4.46957 4 5 4" stroke="#FCFF6D" stroke-width="2"/>
<path d="M5 4H9L11 9L8.5 10.5C9.57096 12.6715 11.3285 14.429 13.5 15.5L15 13L20 15V19C20 19.5304 19.7893 20.0391 19.4142 20.4142C19.0391 20.7893 18.5304 21 18 21C14.0993 20.763 10.4202 19.1065 7.65683 16.3432C4.8935 13.5798 3.23705 9.90074 3 6C3 5.46957 3.21071 4.96086 3.58579 4.58579C3.96086 4.21071 4.46957 4 5 4" stroke="url(#paint0_linear_12_584)" stroke-opacity="0.8" stroke-width="2"/>
<path d="M15 7C15.5304 7 16.0391 7.21071 16.4142 7.58579C16.7893 7.96086 17 8.46957 17 9" stroke="#FCFF6D" stroke-width="2"/>
<path d="M15 7C15.5304 7 16.0391 7.21071 16.4142 7.58579C16.7893 7.96086 17 8.46957 17 9" stroke="url(#paint1_linear_12_584)" stroke-opacity="0.8" stroke-width="2"/>
<path d="M15 3C16.5913 3 18.1174 3.63214 19.2426 4.75736C20.3679 5.88258 21 7.4087 21 9" stroke="#FCFF6D" stroke-width="2"/>
<path d="M15 3C16.5913 3 18.1174 3.63214 19.2426 4.75736C20.3679 5.88258 21 7.4087 21 9" stroke="url(#paint2_linear_12_584)" stroke-opacity="0.8" stroke-width="2"/>
</g>
<defs>
<linearGradient id="paint0_linear_12_584" x1="20" y1="20.5537" x2="5.67792" y2="1.93916" gradientUnits="userSpaceOnUse">
<stop stop-color="#4FFF80"/>
<stop offset="0.638421" stop-color="#4FFF80" stop-opacity="0"/>
</linearGradient>
<linearGradient id="paint1_linear_12_584" x1="17" y1="8.9475" x2="15.315" y2="6.75755" gradientUnits="userSpaceOnUse">
<stop stop-color="#4FFF80"/>
<stop offset="0.638421" stop-color="#4FFF80" stop-opacity="0"/>
</linearGradient>
<linearGradient id="paint2_linear_12_584" x1="21" y1="8.84249" x2="15.9451" y2="2.27264" gradientUnits="userSpaceOnUse">
<stop stop-color="#4FFF80"/>
<stop offset="0.638421" stop-color="#4FFF80" stop-opacity="0"/>
</linearGradient>
<clipPath id="clip0_12_584">
<rect width="24" height="24" fill="white"/>
</clipPath>
</defs>
</svg>
